<?xml version="1.0" encoding="iso-8859-1"?>
<!-- Generator: Adobe Illustrator 19.0.0, SVG Export Plug-In . SVG Version: 6.00 Build 0)  -->
<svg version="1.1" id="Capa_1" xmlns="http://www.w3.org/2000/svg" xmlns:xlink="http://www.w3.org/1999/xlink" x="0px" y="0px"
	 viewBox="0 0 512 512" style="enable-background:new 0 0 512 512;" xml:space="preserve">
<path style="fill:#F3F5E6;" d="M453.652,464.073c61.638-61.638,40.534-148.929,40.534-148.929L379.142,297.33l-115.043,17.814
	c0,0-21.104,87.29,40.534,148.929l74.51,19.596L453.652,464.073z"/>
<g>
	<path style="fill:#D7D9CC;" d="M335.538,464.073c-61.638-61.639-40.534-148.929-40.534-148.929l99.591-15.422l-15.453-2.393
		l-115.043,17.814c0,0-21.104,87.29,40.534,148.929l74.51,19.595l15.453-4.064L335.538,464.073z"/>
	<rect x="362.057" y="139.136" style="fill:#D7D9CC;" width="34.171" height="158.195"/>
</g>
<rect x="362.057" y="139.136" style="fill:#B1B3A8;" width="15.453" height="158.195"/>
<path style="fill:#80E2FF;" d="M291.627,117.76v17.574c0,19.023,15.422,34.444,34.444,34.444h106.142
	c19.023,0,34.444-15.422,34.444-34.444V117.76H291.627z"/>
<path style="fill:#45B6D9;" d="M322.532,135.334V117.76h-30.905v17.574c0,19.023,15.421,34.444,34.444,34.444h30.905
	C337.953,169.778,322.532,154.357,322.532,135.334z"/>
<path style="fill:#55C2E3;" d="M395.221,8.736H99.232c-46.93,0-84.974,38.045-84.974,84.974l0,0
	c0,46.93,38.045,84.974,84.974,84.974h81.052c14.652,0,28.523-6.611,37.75-17.992l0,0c11.056-13.637,27.675-21.557,45.23-21.557
	h211.944c10.477,0,18.97-8.493,18.97-18.97v-12.474C494.178,53.041,449.873,8.736,395.221,8.736z"/>
<path style="fill:#45B6D9;" d="M45.162,93.71L45.162,93.71c0-46.931,38.045-84.974,84.974-84.974H99.231
	c-46.93,0-84.974,38.045-84.974,84.974l0,0c0,46.93,38.045,84.974,84.974,84.974h30.905C83.207,178.686,45.162,140.64,45.162,93.71z
	"/>
<g>
	<path style="fill:#3B484A;" d="M319.577,90.548c-4.267,0-7.726-3.459-7.726-7.726v-10.78c0-4.267,3.459-7.726,7.726-7.726
		s7.726,3.459,7.726,7.726v10.781C327.303,87.088,323.844,90.548,319.577,90.548z"/>
	<path style="fill:#3B484A;" d="M438.708,90.548c-4.267,0-7.726-3.459-7.726-7.726v-10.78c0-4.267,3.459-7.726,7.726-7.726
		c4.267,0,7.726,3.459,7.726,7.726v10.781C446.434,87.088,442.975,90.548,438.708,90.548z"/>
	<path style="fill:#3B484A;" d="M379.142,96.302c-7.959,0-15.438-3.334-20.519-9.146c-2.808-3.213-2.481-8.094,0.732-10.902
		c3.213-2.808,8.093-2.481,10.902,0.732c2.146,2.455,5.385,3.863,8.884,3.863c3.5,0,6.738-1.408,8.885-3.863
		c2.808-3.213,7.689-3.54,10.902-0.732c3.213,2.808,3.541,7.689,0.731,10.902C394.58,92.969,387.101,96.302,379.142,96.302z"/>
</g>
<path style="fill:#80E2FF;" d="M192.174,185.126c-4.605-26.579-27.667-45.988-54.641-45.988l0,0
	c-26.974,0-50.037,19.41-54.641,45.988L34.567,464.072l102.968,19.596l102.968-19.596L192.174,185.126z"/>
<circle style="fill:#F3F5E6;" cx="137.529" cy="196.857" r="17.458"/>
<path style="fill:#B1B3A8;" d="M430.529,325.431c-5.917-19.129-15.466-32.434-15.87-32.992c-1.454-2.006-3.78-3.193-6.256-3.193
	h-58.521c-2.477,0-4.804,1.187-6.256,3.193c-0.404,0.557-9.953,13.862-15.87,32.992c-8.031,25.964-5.509,50.279,7.293,70.318
	c10.66,16.688,26.731,26.259,44.091,26.261c0.001,0,0.002,0,0.003,0l0,0h0.001h0.001l0,0c0.001,0,0.002,0,0.003,0
	c17.361-0.001,33.43-9.572,44.091-26.261C436.039,375.71,438.56,351.394,430.529,325.431z M379.142,402.971
	c-13.445-16.237-17.061-37.092-10.721-62.124c2.817-11.122,7.134-20.971,10.728-28.015c3.543,6.94,7.788,16.625,10.616,27.627
	C396.243,365.664,392.66,386.649,379.142,402.971z M348.069,387.43c-21.2-33.186-0.865-71.567,5.996-82.731h11.872
	c-4.069,7.823-9.068,19.014-12.384,31.914c-6.004,23.36-4.438,44.395,4.428,62.063C354.29,395.693,350.935,391.917,348.069,387.43z
	 M410.215,387.43c-2.866,4.486-6.22,8.262-9.911,11.246c8.865-17.669,10.431-38.703,4.427-62.063
	c-3.316-12.9-8.315-24.091-12.384-31.914h11.886C411.123,315.843,431.501,354.11,410.215,387.43z"/>
<path style="fill:#80E2FF;" d="M494.185,279.515H264.098c-9.838,0-17.815,7.976-17.815,17.814l0,0
	c0,9.838,7.976,17.814,17.815,17.814h230.087c9.838,0,17.815-7.976,17.815-17.814l0,0C512,287.491,504.024,279.515,494.185,279.515z
	"/>
<g>
	<path style="fill:#55C2E3;" d="M277.19,297.329L277.19,297.329c0-9.838,7.976-17.814,17.815-17.814h-30.905
		c-9.839,0-17.815,7.976-17.815,17.814l0,0c0,9.839,7.976,17.814,17.815,17.814h30.905
		C285.165,315.144,277.19,307.168,277.19,297.329z"/>
	<path style="fill:#55C2E3;" d="M511.1,492.482l-6.796-12.459c-5.363-9.832-15.669-15.95-26.869-15.95H34.566
		c-11.2,0-21.506,6.118-26.869,15.95L0.9,492.482c-2.65,4.858,0.866,10.782,6.401,10.782h497.397
		C510.233,503.264,513.749,497.34,511.1,492.482z"/>
</g>
<path style="fill:#45B6D9;" d="M31.806,492.482l6.796-12.459c5.363-9.832,15.669-15.95,26.869-15.95H34.566
	c-11.2,0-21.506,6.117-26.869,15.95L0.9,492.482c-2.65,4.858,0.866,10.782,6.401,10.782h30.905
	C32.672,503.264,29.156,497.34,31.806,492.482z"/>
<g>
</g>
<g>
</g>
<g>
</g>
<g>
</g>
<g>
</g>
<g>
</g>
<g>
</g>
<g>
</g>
<g>
</g>
<g>
</g>
<g>
</g>
<g>
</g>
<g>
</g>
<g>
</g>
<g>
</g>
</svg>
