<?xml version="1.0" encoding="iso-8859-1"?>
<!-- Generator: Adobe Illustrator 19.0.0, SVG Export Plug-In . SVG Version: 6.00 Build 0)  -->
<svg version="1.1" id="Capa_1" xmlns="http://www.w3.org/2000/svg" xmlns:xlink="http://www.w3.org/1999/xlink" x="0px" y="0px"
	 viewBox="0 0 512.001 512.001" style="enable-background:new 0 0 512.001 512.001;" xml:space="preserve">
<g>
	<path style="fill:#FEC300;" d="M58.075,421.622c-73.303,34.461-61.176,68.296-48.584,80.888s46.427,24.718,80.888-48.584
		l0.423-32.726L58.075,421.622z"/>
	<path style="fill:#FEC300;" d="M421.622,58.075c34.461-73.303,68.296-61.176,80.888-48.584s24.718,46.427-48.584,80.888
		L421.2,90.802L421.622,58.075z"/>
</g>
<g>
	
		<rect x="67.359" y="398.362" transform="matrix(0.7071 -0.7071 0.7071 0.7071 -271.2398 187.5715)" style="fill:#FEEA61;" width="46.88" height="45.678"/>
	
		<rect x="397.76" y="67.957" transform="matrix(-0.7071 0.7071 -0.7071 -0.7071 783.236 -142.8356)" style="fill:#FEEA61;" width="46.88" height="45.678"/>
</g>
<g>
	<path style="fill:#FEC300;" d="M82.03,358.824l-8.492,14.781c-5.366,9.341-3.802,21.12,3.815,28.737l32.303,32.303
		c7.617,7.617,19.396,9.181,28.737,3.815l14.781-8.492l-14.732-56.414L82.03,358.824z"/>
	<path style="fill:#FEC300;" d="M358.824,82.03l14.781-8.492c9.341-5.366,21.12-3.802,28.737,3.815l32.303,32.303
		c7.617,7.617,9.181,19.396,3.815,28.737l-8.492,14.781l-56.414-14.732L358.824,82.03z"/>
</g>
<path style="fill:#FEEA61;" d="M323.159,82.03L82.03,323.159c-9.849,9.849-9.849,25.816,0,35.665l71.144,71.144
	c9.849,9.849,25.816,9.849,35.665,0L429.968,188.84c9.849-9.849,9.849-25.816,0-35.665l-71.144-71.144
	C348.976,72.182,333.008,72.182,323.159,82.03z"/>
<path style="fill:#FEC300;" d="M408.115,166.987L166.987,408.115c-9.849,9.849-25.816,9.849-35.665,0l21.853,21.853
	c9.849,9.849,25.816,9.849,35.665,0L429.969,188.84c9.849-9.849,9.849-25.816,0-35.665l-21.853-21.853
	C417.965,141.171,417.964,157.139,408.115,166.987z"/>
<g>
	<path style="fill:#3B484A;" d="M206.062,326.894c-1.977,0-3.955-0.754-5.463-2.263l-10.235-10.235
		c-3.017-3.017-3.017-7.91,0-10.927c3.017-3.017,7.91-3.017,10.926,0l10.235,10.235c3.017,3.017,3.017,7.91,0,10.927
		C210.016,326.14,208.039,326.894,206.062,326.894z"/>
	<path style="fill:#3B484A;" d="M319.168,213.788c-1.977,0-3.955-0.754-5.463-2.263l-10.236-10.235
		c-3.017-3.017-3.017-7.91,0-10.927c3.017-3.017,7.91-3.017,10.926,0l10.236,10.235c3.017,3.017,3.017,7.91,0,10.927
		C323.122,213.033,321.145,213.788,319.168,213.788z"/>
	<path style="fill:#3B484A;" d="M249.593,283.642c-0.722,0-1.444-0.024-2.167-0.073c-4.258-0.286-7.477-3.969-7.191-8.227
		c0.286-4.258,3.96-7.476,8.227-7.191c5.127,0.346,10.288-1.673,14.152-5.537c3.863-3.863,5.881-9.021,5.537-14.153
		c-0.286-4.258,2.933-7.941,7.191-8.227c4.27-0.286,7.941,2.934,8.227,7.191c0.644,9.58-3.011,19.098-10.028,26.115
		C267.055,280.028,258.429,283.642,249.593,283.642z"/>
</g>
<g>
</g>
<g>
</g>
<g>
</g>
<g>
</g>
<g>
</g>
<g>
</g>
<g>
</g>
<g>
</g>
<g>
</g>
<g>
</g>
<g>
</g>
<g>
</g>
<g>
</g>
<g>
</g>
<g>
</g>
</svg>
