<?xml version="1.0" encoding="iso-8859-1"?>
<!-- Generator: Adobe Illustrator 19.0.0, SVG Export Plug-In . SVG Version: 6.00 Build 0)  -->
<svg version="1.1" id="Capa_1" xmlns="http://www.w3.org/2000/svg" xmlns:xlink="http://www.w3.org/1999/xlink" x="0px" y="0px"
	 viewBox="0 0 512 512" style="enable-background:new 0 0 512 512;" xml:space="preserve">
<path style="fill:#D7D9CC;" d="M256,7.347c-15.61,0-28.264,12.655-28.264,28.264v36.188h56.528V35.611
	C284.264,20.002,271.61,7.347,256,7.347z"/>
<path style="fill:#F3F5E6;" d="M383.269,52.955H128.731c-57.322,0-103.792,46.469-103.792,103.792v159.468l35.971,24.941h390.178
	l35.971-24.941V156.747C487.059,99.425,440.591,52.955,383.269,52.955z"/>
<path style="fill:#D7D9CC;" d="M55.846,156.747c0-57.322,46.469-103.791,103.792-103.791h-30.905
	c-57.322,0-103.792,46.468-103.792,103.791v159.468l35.971,24.94h30.905l-35.971-24.94V156.747z"/>
<path style="fill:#FA7578;" d="M420.084,483.115c-8.674-7.718-20.633-13.178-29.397-16.756
	c-13.933-5.689-28.458-9.947-43.384-11.941c-19.463-2.599-38.271-4.464-50.522-21.649c-9.493-13.316-12.632-30.383-13.975-46.355
	c-1.897-22.546,1.003-45.256,4.972-67.427h-63.552c3.968,22.172,6.868,44.882,4.972,67.427
	c-1.343,15.972-4.483,33.039-13.975,46.355c-12.251,17.185-31.059,19.05-50.522,21.649c-14.927,1.993-29.451,6.252-43.385,11.941
	c-8.764,3.578-20.723,9.038-29.397,16.756c-8.465,7.532-3.131,21.538,8.2,21.538h311.768
	C423.215,504.653,428.549,490.646,420.084,483.115z"/>
<polygon style="fill:#A8503C;" points="101.634,116.465 101.634,225.321 410.366,225.321 410.366,116.465 369.583,105.323 
	135.401,105.323 "/>
<path style="fill:#FA9EB0;" d="M383.435,89.535H128.565c-14.874,0-26.931,12.057-26.931,26.931l0,0
	c0,17.311,14.167,31.809,31.475,31.477c16.773-0.32,30.271-14.018,30.271-30.867c0,17.051,13.822,30.873,30.873,30.873
	s30.873-13.822,30.873-30.873c0,17.051,13.822,30.873,30.873,30.873s30.874-13.822,30.874-30.873
	c0,17.051,13.822,30.873,30.874,30.873c17.051,0,30.873-13.822,30.873-30.873c0,16.85,13.498,30.547,30.271,30.867
	c17.308,0.331,31.475-14.166,31.475-31.477l0,0C410.366,101.592,398.309,89.535,383.435,89.535z"/>
<polygon style="fill:#A8503C;" points="60.912,226.102 60.912,341.155 451.088,341.155 451.088,226.102 399.545,212.02 
	103.587,212.02 "/>
<path style="fill:#FA9EB0;" d="M417.054,192.067H94.946c-18.797,0-34.035,15.238-34.035,34.035l0,0
	c0,21.878,17.905,40.2,39.778,39.781c21.198-0.406,38.257-17.716,38.257-39.011c0,21.549,17.469,39.018,39.018,39.018
	s39.018-17.469,39.018-39.018c0,21.549,17.469,39.018,39.018,39.018s39.018-17.469,39.018-39.018
	c0,21.549,17.469,39.018,39.018,39.018c21.549,0,39.018-17.469,39.018-39.018c0,21.295,17.059,38.605,38.257,39.011
	c21.874,0.418,39.778-17.904,39.778-39.781l0,0C451.088,207.305,435.851,192.067,417.054,192.067z"/>
<path style="fill:#F9545B;" d="M224.224,318.986c3.968,22.172,6.868,44.882,4.972,67.427c-0.294,3.494-0.682,7.039-1.195,10.587
	h55.999c-0.513-3.548-0.901-7.094-1.195-10.587c-1.897-22.546,1.003-45.256,4.972-67.427H224.224z"/>
<path style="fill:#55C2E3;" d="M487.059,316.215H24.941C11.166,316.215,0,327.381,0,341.155l0,0
	c0,13.775,11.166,24.941,24.941,24.941h462.119c13.775,0,24.941-11.166,24.941-24.941l0,0
	C512,327.381,500.834,316.215,487.059,316.215z"/>
<path style="fill:#45B6D9;" d="M30.905,341.155L30.905,341.155c0-13.775,11.166-24.94,24.941-24.94H24.941
	C11.166,316.215,0,327.381,0,341.155l0,0c0,13.775,11.166,24.941,24.941,24.941h30.905
	C42.072,366.095,30.905,354.929,30.905,341.155z"/>
<g>
</g>
<g>
</g>
<g>
</g>
<g>
</g>
<g>
</g>
<g>
</g>
<g>
</g>
<g>
</g>
<g>
</g>
<g>
</g>
<g>
</g>
<g>
</g>
<g>
</g>
<g>
</g>
<g>
</g>
</svg>
