<?xml version="1.0" encoding="iso-8859-1"?>
<!-- Generator: Adobe Illustrator 19.0.0, SVG Export Plug-In . SVG Version: 6.00 Build 0)  -->
<svg version="1.1" id="Capa_1" xmlns="http://www.w3.org/2000/svg" xmlns:xlink="http://www.w3.org/1999/xlink" x="0px" y="0px"
	 viewBox="0 0 496.999 496.999" style="enable-background:new 0 0 496.999 496.999;" xml:space="preserve">
<g>
	<path style="fill:#FA9EB0;" d="M43.831,290.63c-9.593,10.084-16.754,17.612-37.567,18.834C2.741,309.671,0,312.612,0,316.14v22.396
		c0,3.834,3.22,6.877,7.049,6.686c35.908-1.798,50.679-17.324,62.687-29.948c10.459-10.994,17.368-18.257,41.105-18.257v-35.755
		C71.769,261.26,56.278,277.546,43.831,290.63z"/>
	<path style="fill:#FA9EB0;" d="M490.736,309.464c-20.813-1.222-27.974-8.75-37.567-18.834
		c-12.448-13.084-27.939-29.369-67.011-29.369v35.755c23.737,0,30.646,7.264,41.105,18.257
		c12.008,12.624,26.779,28.15,62.687,29.948c3.829,0.192,7.049-2.851,7.049-6.686V316.14
		C497,312.612,494.259,309.671,490.736,309.464z"/>
</g>
<g>
	<path style="fill:#ED6883;" d="M434.966,274.307c-10.859-7.355-25.712-13.046-48.808-13.046v35.755
		c23.737,0,30.646,7.264,41.105,18.258c2.406,2.529,4.927,5.175,7.703,7.803L434.966,274.307L434.966,274.307z"/>
	<path style="fill:#ED6883;" d="M62.034,274.307c10.859-7.355,25.712-13.046,48.808-13.046v35.755
		c-23.737,0-30.646,7.264-41.105,18.258c-2.406,2.529-4.927,5.175-7.703,7.803V274.307z"/>
</g>
<path style="fill:#FA9EB0;" d="M391.057,208.797c-29.238-27.221-32.562-63.786-32.562-63.786l-0.597-0.088V22.887h-48.876V56.39
	c0,33.425-27.096,60.522-60.522,60.522l0,0c-33.425,0-60.522-27.096-60.522-60.522V22.887h-49.472v122.124
	c0,0-3.324,36.565-32.562,63.786c-8.793,8.186-13.91,19.573-13.91,31.587v205.742c0,15.457,12.53,27.987,27.987,27.987h256.958
	c15.457,0,27.987-12.53,27.987-27.987V240.384C404.966,228.37,399.85,216.983,391.057,208.797z"/>
<path style="fill:#ED6883;" d="M248.5,294.836l-85.625,15.697v54.545c0,14.213,11.531,25.744,25.744,25.744h119.763
	c14.213,0,25.744-11.531,25.744-25.744v-54.545L248.5,294.836z"/>
<g>
	<path style="fill:#3B484A;" d="M181.006,220.757c-4.143,0-7.5-3.358-7.5-7.5v-12.215c0-4.142,3.357-7.5,7.5-7.5s7.5,3.358,7.5,7.5
		v12.215C188.506,217.4,185.149,220.757,181.006,220.757z"/>
	<path style="fill:#3B484A;" d="M315.994,220.757c-4.143,0-7.5-3.358-7.5-7.5v-12.215c0-4.142,3.357-7.5,7.5-7.5s7.5,3.358,7.5,7.5
		v12.215C323.494,217.4,320.136,220.757,315.994,220.757z"/>
	<path style="fill:#3B484A;" d="M248.5,227.278c-8.656,0-16.786-3.621-22.306-9.934c-2.727-3.119-2.408-7.857,0.71-10.583
		c3.117-2.726,7.854-2.409,10.583,0.71c2.67,3.055,6.685,4.807,11.013,4.807s8.342-1.752,11.012-4.807
		c2.726-3.118,7.463-3.437,10.583-0.71c3.118,2.726,3.437,7.464,0.71,10.583C265.286,223.657,257.157,227.278,248.5,227.278z"/>
</g>
<rect x="162.87" y="279.14" style="fill:#F3F5E6;" width="171.25" height="31.393"/>
<g>
</g>
<g>
</g>
<g>
</g>
<g>
</g>
<g>
</g>
<g>
</g>
<g>
</g>
<g>
</g>
<g>
</g>
<g>
</g>
<g>
</g>
<g>
</g>
<g>
</g>
<g>
</g>
<g>
</g>
</svg>
