<svg height="512pt" viewBox="0 -10 512.0004 512" width="512pt" xmlns="http://www.w3.org/2000/svg"><path d="m336.660156 276.167969c-4.144531 0-7.5-3.359375-7.5-7.503907v-12.449218c0-4.144532 3.355469-7.5 7.5-7.5 4.144532 0 7.5 3.355468 7.5 7.5v12.449218c0 4.144532-3.359375 7.503907-7.5 7.503907zm0 0"/><path d="m175.339844 276.167969c-4.144532 0-7.5-3.359375-7.5-7.503907v-12.449218c0-4.144532 3.355468-7.5 7.5-7.5 4.144531 0 7.5 3.355468 7.5 7.5v12.449218c0 4.144532-3.355469 7.503907-7.5 7.503907zm0 0"/><path d="m256 284.019531c-9.707031 0-19.414062-3.140625-27.515625-9.425781-3.273437-2.535156-3.867187-7.25-1.328125-10.523438 2.535156-3.273437 7.25-3.867187 10.523438-1.328124 10.785156 8.367187 25.855468 8.367187 36.640624 0 3.273438-2.539063 7.984376-1.945313 10.523438 1.328124 2.539062 3.273438 1.945312 7.984376-1.328125 10.523438-8.101563 6.285156-17.808594 9.425781-27.515625 9.425781zm0 0"/><path d="m92.007812 386.222656c-4.097656-.59375-6.824218-4.578125-6.125-8.660156l4.140626-24.121094c3.78125-22.046875-3.523438-44.527344-19.542969-60.136718l-53.636719-52.285157c-15.277344-14.894531-20.671875-36.746093-14.078125-57.035156 6.589844-20.285156 23.800781-34.792969 44.910156-37.863281l74.128907-10.769532c22.132812-3.214843 41.253906-17.109374 51.15625-37.167968l33.148437-67.171875c9.441406-19.128907 28.558594-31.011719 49.890625-31.011719s40.449219 11.882812 49.890625 31.011719l33.148437 67.171875c9.898438 20.058594 29.023438 33.953125 51.15625 37.167968l25.464844 3.699219c4.101563.597657 6.941406 4.402344 6.347656 8.5-.597656 4.101563-4.414062 6.941407-8.503906 6.34375l-25.464844-3.699219c-27.023437-3.925781-50.367187-20.886718-62.453124-45.371093l-33.148438-67.171875c-7-14.183594-20.621094-22.652344-36.4375-22.652344s-29.4375 8.46875-36.4375 22.652344l-33.152344 67.171875c-12.082031 24.484375-35.429687 41.445312-62.449218 45.371093l-74.125 10.773438c-15.65625 2.273438-27.917969 12.609375-32.804688 27.652344-4.886719 15.042968-1.042969 30.617187 10.28125 41.65625l53.640625 52.28125c19.550781 19.0625 28.46875 46.503906 23.851563 73.417968l-4.136719 24.121094c-.625 3.652344-3.59375 6.855469-8.660157 6.125zm0 0"/><path d="m353.917969 485.917969-66.300781-34.859375c-19.796876-10.40625-43.4375-10.40625-63.234376 0l-66.300781 34.859375c-18.882812 9.925781-41.332031 8.300781-58.589843-4.234375-17.257813-12.539063-25.738282-33.390625-22.132813-54.417969l2.628906-15.324219c.699219-4.082031 4.574219-6.828125 8.660157-6.121094 4.082031.699219 6.824218 4.574219 6.125 8.65625l-2.628907 15.324219c-2.675781 15.589844 3.367188 30.449219 16.164063 39.746094s28.792968 10.453125 42.792968 3.089844l66.300782-34.855469c24.167968-12.707031 53.023437-12.703125 77.195312 0l66.300782 34.855469c14 7.363281 29.996093 6.207031 42.792968-3.089844s18.839844-24.15625 16.164063-39.746094l-12.660157-73.824219c-4.617187-26.914062 4.300782-54.355468 23.851563-73.417968l53.640625-52.28125c11.328125-11.039063 15.171875-26.613282 10.28125-41.65625-4.886719-15.042969-17.148438-25.378906-32.800781-27.652344l-16.339844-2.375c-4.097656-.597656-6.9375-4.402344-6.34375-8.5.59375-4.101562 4.410156-6.949219 8.5-6.34375l16.339844 2.371094c21.109375 3.070312 38.320312 17.578125 44.910156 37.863281 6.59375 20.289063 1.199219 42.144531-14.078125 57.035156l-53.636719 52.285157c-16.015625 15.609374-23.320312 38.089843-19.542969 60.136718l12.664063 73.824219c3.605469 21.027344-4.832031 41.9375-22.132813 54.417969-25.390624 18.308594-50.375 8.550781-58.589843 4.234375zm0 0"/></svg>