<svg height="512pt" viewBox="0 -10 512.0011 512" width="512pt" xmlns="http://www.w3.org/2000/svg"><path d="m300.464844 27.640625 34.152344 69.195313c11.320312 22.9375 33.199218 38.835937 58.515624 42.511718l76.359376 11.097656c40.671874 5.910157 56.910156 55.890626 27.480468 84.578126l-55.253906 53.859374c-18.316406 17.855469-26.675781 43.578126-22.351562 68.789063l13.042968 76.050781c6.949219 40.507813-35.566406 71.398438-71.945312 52.273438l-68.296875-35.90625c-22.640625-11.90625-49.691407-11.90625-72.328125 0l-68.300782 35.90625c-36.378906 19.125-78.894531-11.765625-71.945312-52.273438l13.042969-76.050781c4.324219-25.210937-4.035157-50.933594-22.351563-68.789063l-55.253906-53.859374c-29.433594-28.6875-13.191406-78.667969 27.480469-84.578126l76.359375-11.097656c25.3125-3.675781 47.195312-19.574218 58.515625-42.511718l34.148437-69.195313c18.1875-36.851563 70.742188-36.851563 88.929688 0zm0 0" fill="#ffeb99"/><path d="m206.886719 209.53125c40.554687-37.753906 80.9375-127.4375 98.984375-170.941406l-5.40625-10.949219c-18.1875-36.851563-70.742188-36.851563-88.929688 0l-34.148437 69.195313c-11.320313 22.9375-33.203125 38.835937-58.515625 42.511718l-76.359375 11.097656c-40.671875 5.910157-56.914063 55.890626-27.484375 84.578126l55.257812 53.859374c18.316406 17.855469 26.671875 43.578126 22.347656 68.789063l-13.042968 76.050781c-6.949219 40.507813 35.570312 71.398438 71.945312 52.273438l48.945313-25.734375c32.847656-116.648438-66.386719-182.960938 6.40625-250.730469zm0 0" fill="#ffde55"/><g fill="#57565c"><path d="m339.09375 276.761719c-4.269531 0-7.726562-3.457031-7.726562-7.726563v-12.824218c0-4.269532 3.457031-7.726563 7.726562-7.726563 4.265625 0 7.726562 3.457031 7.726562 7.726563v12.824218c0 4.269532-3.460937 7.726563-7.726562 7.726563zm0 0"/><path d="m172.910156 276.761719c-4.269531 0-7.726562-3.457031-7.726562-7.726563v-12.824218c0-4.269532 3.457031-7.726563 7.726562-7.726563 4.269532 0 7.726563 3.457031 7.726563 7.726563v12.824218c0 4.269532-3.457031 7.726563-7.726563 7.726563zm0 0"/><path d="m256 284.851562c-10 0-20-3.234374-28.34375-9.707031-3.371094-2.613281-3.984375-7.46875-1.367188-10.839843 2.613282-3.375 7.46875-3.984376 10.839844-1.371094 11.109375 8.621094 26.632813 8.621094 37.746094 0 3.367188-2.613282 8.222656-2.003906 10.839844 1.371094 2.613281 3.371093 2 8.222656-1.371094 10.839843-8.34375 6.472657-18.34375 9.707031-28.34375 9.707031zm0 0"/></g></svg>