<?xml version="1.0" encoding="UTF-8"?>
<svg width="1264px" height="707px" viewBox="0 0 1264 707" version="1.1" xmlns="http://www.w3.org/2000/svg" xmlns:xlink="http://www.w3.org/1999/xlink">
    <!-- Generator: Sketch 57.1 (83088) - https://sketch.com -->
    <title>winner</title>
    <desc>Created with Sketch.</desc>
    <defs>
        <linearGradient x1="50%" y1="0%" x2="50%" y2="99.6204738%" id="linearGradient-1">
            <stop stop-color="#FFEB99" stop-opacity="0.0670891608" offset="0%"></stop>
            <stop stop-color="#FFE26A" stop-opacity="0.379741143" offset="58.2559122%"></stop>
            <stop stop-color="#FFDE55" stop-opacity="0.517755682" offset="99.9049831%"></stop>
        </linearGradient>
        <linearGradient x1="50%" y1="0%" x2="50%" y2="99.7152201%" id="linearGradient-2">
            <stop stop-color="#FFEB99" stop-opacity="0.0670891608" offset="0%"></stop>
            <stop stop-color="#FFE26A" stop-opacity="0.379741143" offset="58.2559122%"></stop>
            <stop stop-color="#FFDE55" stop-opacity="0.517755682" offset="99.9049831%"></stop>
        </linearGradient>
        <linearGradient x1="50%" y1="0%" x2="50%" y2="99.7152201%" id="linearGradient-3">
            <stop stop-color="#FFEB99" stop-opacity="0.0670891608" offset="0%"></stop>
            <stop stop-color="#FFE26A" stop-opacity="0.379741143" offset="58.2559122%"></stop>
            <stop stop-color="#FFDE55" stop-opacity="0.517755682" offset="99.9049831%"></stop>
        </linearGradient>
        <linearGradient x1="50%" y1="0%" x2="50%" y2="99.7152201%" id="linearGradient-4">
            <stop stop-color="#FFEB99" stop-opacity="0.0670891608" offset="0%"></stop>
            <stop stop-color="#FFE26A" stop-opacity="0.379741143" offset="58.2559122%"></stop>
            <stop stop-color="#FFDE55" stop-opacity="0.517755682" offset="99.9049831%"></stop>
        </linearGradient>
        <linearGradient x1="50%" y1="0%" x2="50%" y2="99.7152201%" id="linearGradient-5">
            <stop stop-color="#FFEB99" stop-opacity="0.0670891608" offset="0%"></stop>
            <stop stop-color="#FFE26A" stop-opacity="0.379741143" offset="58.2559122%"></stop>
            <stop stop-color="#FFDE55" stop-opacity="0.517755682" offset="99.9049831%"></stop>
        </linearGradient>
        <linearGradient x1="50%" y1="0%" x2="50%" y2="99.7152201%" id="linearGradient-6">
            <stop stop-color="#FFEB99" stop-opacity="0.0670891608" offset="0%"></stop>
            <stop stop-color="#FFE26A" stop-opacity="0.379741143" offset="58.2559122%"></stop>
            <stop stop-color="#FFDE55" stop-opacity="0.517755682" offset="99.9049831%"></stop>
        </linearGradient>
        <linearGradient x1="50%" y1="0%" x2="50%" y2="99.7152201%" id="linearGradient-7">
            <stop stop-color="#FFEB99" stop-opacity="0.0670891608" offset="0%"></stop>
            <stop stop-color="#FFE26A" stop-opacity="0.379741143" offset="58.2559122%"></stop>
            <stop stop-color="#FFDE55" stop-opacity="0.517755682" offset="99.9049831%"></stop>
        </linearGradient>
        <linearGradient x1="50%" y1="0%" x2="50%" y2="99.7152201%" id="linearGradient-8">
            <stop stop-color="#FFEB99" stop-opacity="0.0670891608" offset="0%"></stop>
            <stop stop-color="#FFE26A" stop-opacity="0.379741143" offset="58.2559122%"></stop>
            <stop stop-color="#FFDE55" stop-opacity="0.517755682" offset="99.9049831%"></stop>
        </linearGradient>
        <linearGradient x1="50%" y1="0%" x2="50%" y2="99.7152201%" id="linearGradient-9">
            <stop stop-color="#FFEB99" stop-opacity="0.0670891608" offset="0%"></stop>
            <stop stop-color="#FFE26A" stop-opacity="0.379741143" offset="58.2559122%"></stop>
            <stop stop-color="#FFDE55" stop-opacity="0.517755682" offset="99.9049831%"></stop>
        </linearGradient>
        <radialGradient cx="50%" cy="46.3456538%" fx="50%" fy="46.3456538%" r="42.9234031%" gradientTransform="translate(0.500000,0.463457),rotate(-90.000000),scale(1.000000,1.073016),translate(-0.500000,-0.463457)" id="radialGradient-10">
            <stop stop-color="#FFDE55" offset="0%"></stop>
            <stop stop-color="#FFEB99" offset="56.6063133%"></stop>
            <stop stop-color="#FFFFFF" stop-opacity="0" offset="100%"></stop>
        </radialGradient>
        <filter x="-5.8%" y="-5.9%" width="111.5%" height="111.8%" filterUnits="objectBoundingBox" id="filter-11">
            <feOffset dx="4" dy="7" in="SourceAlpha" result="shadowOffsetOuter1"></feOffset>
            <feGaussianBlur stdDeviation="4" in="shadowOffsetOuter1" result="shadowBlurOuter1"></feGaussianBlur>
            <feColorMatrix values="0 0 0 0 0.0212342069   0 0 0 0 0.0300827235   0 0 0 0 0.123612998  0 0 0 0.5 0" type="matrix" in="shadowBlurOuter1" result="shadowMatrixOuter1"></feColorMatrix>
            <feMerge>
                <feMergeNode in="shadowMatrixOuter1"></feMergeNode>
                <feMergeNode in="SourceGraphic"></feMergeNode>
            </feMerge>
        </filter>
    </defs>
    <g id="Page-1" stroke="none" stroke-width="1" fill="none" fill-rule="evenodd">
        <g id="lights" transform="translate(-1.000000, -34.272071)">
            <g id="Group-3" transform="translate(0.000000, 0.272071)">
                <polygon id="Rectangle" fill="url(#linearGradient-1)" transform="translate(322.341071, 391.010446) rotate(-49.000000) translate(-322.341071, -391.010446) " points="223.043327 102.742746 328.380718 130.738344 421.638814 679.278146 408.396795 677.644201"></polygon>
                <polygon id="Rectangle" fill="url(#linearGradient-2)" transform="translate(330.463735, 449.096707) rotate(-68.000000) translate(-330.463735, -449.096707) " points="256.526004 122.590621 345.46249 142.229414 404.402069 775.601417 393.150547 775.350021"></polygon>
                <polygon id="Rectangle" fill="url(#linearGradient-3)" transform="translate(332.616919, 319.319789) rotate(-39.000000) translate(-332.616919, -319.319789) " points="221.697901 19.2617664 336.847686 46.9148471 443.535936 619.377811 429.077469 617.874134"></polygon>
                <polygon id="Rectangle" fill="url(#linearGradient-4)" transform="translate(426.055445, 287.409654) rotate(-28.000000) translate(-426.055445, -287.409654) " points="324.222741 16.6160791 449.30355 40.05369 527.888149 558.203228 512.048431 557.047399"></polygon>
                <polygon id="Rectangle" fill="url(#linearGradient-5)" transform="translate(503.169454, 269.814381) rotate(-18.000000) translate(-503.169454, -269.814381) " points="418.60113 20.9210068 550.744136 37.5381676 587.737779 518.707756 570.838043 518.297946"></polygon>
            </g>
            <g id="Group-4" transform="translate(20.000000, 15.272071)">
                <g id="Group-3" transform="translate(602.000000, 341.000000) scale(-1, 1) translate(-602.000000, -341.000000) translate(0.000000, 0.000000)">
                    <polygon id="Rectangle" fill="url(#linearGradient-6)" transform="translate(283.174329, 395.141395) rotate(-49.000000) translate(-283.174329, -395.141395) " points="183.822606 106.743128 289.205588 134.755387 382.526052 683.539663 369.27838 681.904451"></polygon>
                    <polygon id="Rectangle" fill="url(#linearGradient-6)" transform="translate(303.174329, 462.141395) rotate(-63.000000) translate(-303.174329, -462.141395) " points="203.822606 173.743128 309.205588 201.755387 402.526052 750.539663 389.27838 748.904451"></polygon>
                    <polygon id="Rectangle" fill="url(#linearGradient-6)" transform="translate(343.174329, 512.141395) rotate(-81.000000) translate(-343.174329, -512.141395) " points="243.822606 223.743128 349.205588 251.755387 442.526052 800.539663 429.27838 798.904451"></polygon>
                    <polygon id="Rectangle" fill="url(#linearGradient-6)" transform="translate(903.174329, 495.141395) scale(-1, 1) rotate(-81.000000) translate(-903.174329, -495.141395) " points="803.822606 206.743128 909.205588 234.755387 1002.52605 783.539663 989.27838 781.904451"></polygon>
                    <polygon id="Rectangle" fill="url(#linearGradient-7)" transform="translate(292.474727, 324.431923) rotate(-39.000000) translate(-292.474727, -324.431923) " points="181.495042 24.2439878 296.696087 51.9133738 403.454412 624.619858 388.98959 623.114956"></polygon>
                    <polygon id="Rectangle" fill="url(#linearGradient-8)" transform="translate(358.944392, 287.507605) rotate(-28.000000) translate(-358.944392, -287.507605) " points="257.056378 16.601373 382.194304 40.0528037 460.832407 558.413837 444.985519 557.256987"></polygon>
                    <polygon id="Rectangle" fill="url(#linearGradient-9)" transform="translate(438.095233, 264.903686) rotate(-18.000000) translate(-438.095233, -264.903686) " points="353.482015 15.9105585 485.685811 32.5374847 522.70845 513.896814 505.800983 513.486429"></polygon>
                    <polygon id="Rectangle" fill="url(#linearGradient-9)" transform="translate(558.095233, 264.903686) rotate(-368.000000) translate(-558.095233, -264.903686) " points="473.482015 15.9105585 605.685811 32.5374847 642.70845 513.896814 625.800983 513.486429"></polygon>
                    <polygon id="Rectangle" fill="url(#linearGradient-9)" transform="translate(615.095233, 262.903686) scale(-1, 1) rotate(-368.000000) translate(-615.095233, -262.903686) " points="530.482015 13.9105585 662.685811 30.5374847 699.70845 511.896814 682.800983 511.486429"></polygon>
                </g>
            </g>
        </g>
        <g id="winner-3" transform="translate(-1.000000, 0.500000)">
            <path d="M608.5,707 C803.732659,707 962,548.732659 962,353.5 C962,158.267341 803.732659,0 608.5,0 C499.798398,0 402.556183,49.0634699 337.710549,126.253216 C286.090691,187.699507 255,266.968943 255,353.5 C255,548.732659 413.267341,707 608.5,707 Z" id="Oval" fill="url(#radialGradient-10)"></path>
            <g id="021-cake" filter="url(#filter-11)" transform="translate(360.000000, 123.500000)" fill-rule="nonzero">
                <path d="M256,0.347 C240.39,0.347 227.736,13.002 227.736,28.611 L227.736,64.799 L284.264,64.799 L284.264,28.611 C284.264,13.002 271.61,0.347 256,0.347 Z" id="Path" fill="#D7D9CC"></path>
                <path d="M383.269,45.955 L128.731,45.955 C71.409,45.955 24.939,92.424 24.939,149.747 L24.939,309.215 L60.91,334.156 L451.088,334.156 L487.059,309.215 L487.059,149.747 C487.059,92.425 440.591,45.955 383.269,45.955 Z" id="Path" fill="#F3F5E6"></path>
                <path d="M55.846,149.747 C55.846,92.425 102.315,45.956 159.638,45.956 L128.733,45.956 C71.411,45.956 24.941,92.424 24.941,149.747 L24.941,309.215 L60.912,334.155 L91.817,334.155 L55.846,309.215 L55.846,149.747 Z" id="Path" fill="#D7D9CC"></path>
                <path d="M420.084,476.115 C411.41,468.397 399.451,462.937 390.687,459.359 C376.754,453.67 362.229,449.412 347.303,447.418 C327.84,444.819 309.032,442.954 296.781,425.769 C287.288,412.453 284.149,395.386 282.806,379.414 C280.909,356.868 283.809,334.158 287.778,311.987 L224.226,311.987 C228.194,334.159 231.094,356.869 229.198,379.414 C227.855,395.386 224.715,412.453 215.223,425.769 C202.972,442.954 184.164,444.819 164.701,447.418 C149.774,449.411 135.25,453.67 121.316,459.359 C112.552,462.937 100.593,468.397 91.919,476.115 C83.454,483.647 88.788,497.653 100.119,497.653 L411.887,497.653 C423.215,497.653 428.549,483.646 420.084,476.115 Z" id="Path" fill="#FA7578"></path>
                <g id="Group-5" transform="translate(101.634000, 82.535000)">
                    <polygon id="Path" fill="#A8503C" points="-2.84217094e-14 26.93 -2.84217094e-14 135.786 308.732 135.786 308.732 26.93 267.949 15.788 33.767 15.788"></polygon>
                    <path d="M281.801,0 L26.931,0 C12.057,0 -2.84217094e-14,12.057 -2.84217094e-14,26.931 L-2.84217094e-14,26.931 C-2.84217094e-14,44.242 14.167,58.74 31.475,58.408 C48.248,58.088 61.746,44.39 61.746,27.541 C61.746,44.592 75.568,58.414 92.619,58.414 C109.67,58.414 123.492,44.592 123.492,27.541 C123.492,44.592 137.314,58.414 154.365,58.414 C171.416,58.414 185.239,44.592 185.239,27.541 C185.239,44.592 199.061,58.414 216.113,58.414 C233.164,58.414 246.986,44.592 246.986,27.541 C246.986,44.391 260.484,58.088 277.257,58.408 C294.565,58.739 308.732,44.242 308.732,26.931 L308.732,26.931 C308.732,12.057 296.675,0 281.801,0 Z" id="Path" fill="#FA9EB0"></path>
                </g>
                <polygon id="Path" fill="#A8503C" points="60.912 219.102 60.912 334.155 451.088 334.155 451.088 219.102 399.545 205.02 103.587 205.02"></polygon>
                <path d="M417.054,185.067 L94.946,185.067 C76.149,185.067 60.911,200.305 60.911,219.102 L60.911,219.102 C60.911,240.98 78.816,259.302 100.689,258.883 C121.887,258.477 138.946,241.167 138.946,219.872 C138.946,241.421 156.415,258.890047 177.964,258.890047 C199.513,258.890047 216.982,241.421 216.982,219.872 C216.982,241.421 234.451,258.890047 256,258.890047 C277.549,258.890047 295.018,241.421 295.018,219.872 C295.018,241.421 312.487,258.890047 334.036,258.890047 C355.585,258.890047 373.054,241.421 373.054,219.872 C373.054,241.167 390.113,258.477 411.311,258.883 C433.185,259.301 451.089,240.979 451.089,219.102 L451.089,219.102 C451.089,200.305 435.851,185.067 417.054,185.067 Z" id="Path" fill="#FA9EB0"></path>
                <path d="M224.224,311.986 C228.192,334.158 231.092,356.868 229.196,379.413 C228.902,382.907 228.514,386.452 228.001,390 L284,390 C283.487,386.452 283.099,382.906 282.805,379.413 C280.908,356.867 283.808,334.157 287.777,311.986 L224.224,311.986 Z" id="Path" fill="#F9545B"></path>
                <path d="M487.059,309.215 L24.941,309.215 C11.166,309.215 0,320.381 0,334.155 L0,334.155 C0,347.93 11.166,359.096 24.941,359.096 L487.06,359.096 C500.835,359.096 512.001,347.93 512.001,334.155 L512.001,334.155 C512.001,320.381 500.834,309.215 487.059,309.215 Z" id="Path" fill="#55C2E3"></path>
                <path d="M30.905,334.155 L30.905,334.155 C30.905,320.38 42.071,309.215 55.846,309.215 L24.941,309.215 C11.166,309.215 0,320.381 0,334.155 L0,334.155 C0,347.93 11.166,359.096 24.941,359.096 L55.846,359.096 C42.072,359.095 30.905,347.929 30.905,334.155 Z" id="Path" fill="#45B6D9"></path>
            </g>
        </g>
    </g>
</svg>