<?xml version="1.0" encoding="UTF-8"?>
<svg width="1264px" height="707px" viewBox="0 0 1264 707" version="1.1" xmlns="http://www.w3.org/2000/svg" xmlns:xlink="http://www.w3.org/1999/xlink">
    <!-- Generator: Sketch 57.1 (83088) - https://sketch.com -->
    <title>winner</title>
    <desc>Created with Sketch.</desc>
    <defs>
        <radialGradient cx="50%" cy="46.3456538%" fx="50%" fy="46.3456538%" r="42.9234031%" gradientTransform="translate(0.500000,0.463457),rotate(-90.000000),scale(1.000000,1.073016),translate(-0.500000,-0.463457)" id="radialGradient-1">
            <stop stop-color="#FFDE55" offset="0%"></stop>
            <stop stop-color="#FFEB99" offset="56.6063133%"></stop>
            <stop stop-color="#FFFFFF" stop-opacity="0" offset="100%"></stop>
        </radialGradient>
        <filter x="-5.8%" y="-5.9%" width="111.5%" height="111.8%" filterUnits="objectBoundingBox" id="filter-2">
            <feOffset dx="4" dy="7" in="SourceAlpha" result="shadowOffsetOuter1"></feOffset>
            <feGaussianBlur stdDeviation="4" in="shadowOffsetOuter1" result="shadowBlurOuter1"></feGaussianBlur>
            <feColorMatrix values="0 0 0 0 0.0212342069   0 0 0 0 0.0300827235   0 0 0 0 0.123612998  0 0 0 0.5 0" type="matrix" in="shadowBlurOuter1" result="shadowMatrixOuter1"></feColorMatrix>
            <feMerge>
                <feMergeNode in="shadowMatrixOuter1"></feMergeNode>
                <feMergeNode in="SourceGraphic"></feMergeNode>
            </feMerge>
        </filter>
    </defs>
    <g id="Page-1" stroke="none" stroke-width="1" fill="none" fill-rule="evenodd">
        <g id="winner-3" transform="translate(-1.000000, 0.500000)">
            <path d="M608.5,707 C803.732659,707 962,548.732659 962,353.5 C962,158.267341 803.732659,0 608.5,0 C499.798398,0 402.556183,49.0634699 337.710549,126.253216 C286.090691,187.699507 255,266.968943 255,353.5 C255,548.732659 413.267341,707 608.5,707 Z" id="Oval" fill="url(#radialGradient-1)"></path>
            <g id="021-cake" filter="url(#filter-2)" transform="translate(360.000000, 123.500000)" fill-rule="nonzero">
                <path d="M256,0.347 C240.39,0.347 227.736,13.002 227.736,28.611 L227.736,64.799 L284.264,64.799 L284.264,28.611 C284.264,13.002 271.61,0.347 256,0.347 Z" id="Path" fill="#D7D9CC"></path>
                <path d="M383.269,45.955 L128.731,45.955 C71.409,45.955 24.939,92.424 24.939,149.747 L24.939,309.215 L60.91,334.156 L451.088,334.156 L487.059,309.215 L487.059,149.747 C487.059,92.425 440.591,45.955 383.269,45.955 Z" id="Path" fill="#F3F5E6"></path>
                <path d="M55.846,149.747 C55.846,92.425 102.315,45.956 159.638,45.956 L128.733,45.956 C71.411,45.956 24.941,92.424 24.941,149.747 L24.941,309.215 L60.912,334.155 L91.817,334.155 L55.846,309.215 L55.846,149.747 Z" id="Path" fill="#D7D9CC"></path>
                <path d="M420.084,476.115 C411.41,468.397 399.451,462.937 390.687,459.359 C376.754,453.67 362.229,449.412 347.303,447.418 C327.84,444.819 309.032,442.954 296.781,425.769 C287.288,412.453 284.149,395.386 282.806,379.414 C280.909,356.868 283.809,334.158 287.778,311.987 L224.226,311.987 C228.194,334.159 231.094,356.869 229.198,379.414 C227.855,395.386 224.715,412.453 215.223,425.769 C202.972,442.954 184.164,444.819 164.701,447.418 C149.774,449.411 135.25,453.67 121.316,459.359 C112.552,462.937 100.593,468.397 91.919,476.115 C83.454,483.647 88.788,497.653 100.119,497.653 L411.887,497.653 C423.215,497.653 428.549,483.646 420.084,476.115 Z" id="Path" fill="#FA7578"></path>
                <polygon id="Path" fill="#A8503C" points="60.912 219.102 60.912 334.155 451.088 334.155 451.088 219.102 399.545 205.02 103.587 205.02"></polygon>
                <path d="M417.054,185.067 L94.946,185.067 C76.149,185.067 60.911,200.305 60.911,219.102 L60.911,219.102 C60.911,240.98 78.816,259.302 100.689,258.883 C121.887,258.477 138.946,241.167 138.946,219.872 C138.946,241.421 156.415,258.890047 177.964,258.890047 C199.513,258.890047 216.982,241.421 216.982,219.872 C216.982,241.421 234.451,258.890047 256,258.890047 C277.549,258.890047 295.018,241.421 295.018,219.872 C295.018,241.421 312.487,258.890047 334.036,258.890047 C355.585,258.890047 373.054,241.421 373.054,219.872 C373.054,241.167 390.113,258.477 411.311,258.883 C433.185,259.301 451.089,240.979 451.089,219.102 L451.089,219.102 C451.089,200.305 435.851,185.067 417.054,185.067 Z" id="Path" fill="#FA9EB0"></path>
                <path d="M224.224,311.986 C228.192,334.158 231.092,356.868 229.196,379.413 C228.902,382.907 228.514,386.452 228.001,390 L284,390 C283.487,386.452 283.099,382.906 282.805,379.413 C280.908,356.867 283.808,334.157 287.777,311.986 L224.224,311.986 Z" id="Path" fill="#F9545B"></path>
                <path d="M487.059,309.215 L24.941,309.215 C11.166,309.215 0,320.381 0,334.155 L0,334.155 C0,347.93 11.166,359.096 24.941,359.096 L487.06,359.096 C500.835,359.096 512.001,347.93 512.001,334.155 L512.001,334.155 C512.001,320.381 500.834,309.215 487.059,309.215 Z" id="Path" fill="#55C2E3"></path>
                <path d="M30.905,334.155 L30.905,334.155 C30.905,320.38 42.071,309.215 55.846,309.215 L24.941,309.215 C11.166,309.215 0,320.381 0,334.155 L0,334.155 C0,347.93 11.166,359.096 24.941,359.096 L55.846,359.096 C42.072,359.095 30.905,347.929 30.905,334.155 Z" id="Path" fill="#45B6D9"></path>
            </g>
        </g>
    </g>
</svg>