<?xml version="1.0" encoding="UTF-8"?>
<svg width="1264px" height="707px" viewBox="0 0 1264 707" version="1.1" xmlns="http://www.w3.org/2000/svg" xmlns:xlink="http://www.w3.org/1999/xlink">
    <!-- Generator: Sketch 57.1 (83088) - https://sketch.com -->
    <title>winner</title>
    <desc>Created with Sketch.</desc>
    <defs>
        <radialGradient cx="50%" cy="46.3456538%" fx="50%" fy="46.3456538%" r="42.9234031%" gradientTransform="translate(0.500000,0.463457),rotate(-90.000000),scale(1.000000,1.073016),translate(-0.500000,-0.463457)" id="radialGradient-1">
            <stop stop-color="#FFDE55" offset="0%"></stop>
            <stop stop-color="#FFEB99" offset="56.6063133%"></stop>
            <stop stop-color="#FFFFFF" stop-opacity="0" offset="100%"></stop>
        </radialGradient>
        <filter x="-5.8%" y="-5.9%" width="111.5%" height="111.8%" filterUnits="objectBoundingBox" id="filter-2">
            <feOffset dx="4" dy="7" in="SourceAlpha" result="shadowOffsetOuter1"></feOffset>
            <feGaussianBlur stdDeviation="4" in="shadowOffsetOuter1" result="shadowBlurOuter1"></feGaussianBlur>
            <feColorMatrix values="0 0 0 0 0.0212342069   0 0 0 0 0.0300827235   0 0 0 0 0.123612998  0 0 0 0.5 0" type="matrix" in="shadowBlurOuter1" result="shadowMatrixOuter1"></feColorMatrix>
            <feMerge>
                <feMergeNode in="shadowMatrixOuter1"></feMergeNode>
                <feMergeNode in="SourceGraphic"></feMergeNode>
            </feMerge>
        </filter>
        <filter x="-22.3%" y="-23.2%" width="144.7%" height="146.5%" filterUnits="objectBoundingBox" id="filter-3">
            <feOffset dx="0" dy="5" in="SourceAlpha" result="shadowOffsetOuter1"></feOffset>
            <feGaussianBlur stdDeviation="3.5" in="shadowOffsetOuter1" result="shadowBlurOuter1"></feGaussianBlur>
            <feColorMatrix values="0 0 0 0 0.0602500421   0 0 0 0 0.0334876364   0 0 0 0 0.421648551  0 0 0 0.5 0" type="matrix" in="shadowBlurOuter1" result="shadowMatrixOuter1"></feColorMatrix>
            <feMerge>
                <feMergeNode in="shadowMatrixOuter1"></feMergeNode>
                <feMergeNode in="SourceGraphic"></feMergeNode>
            </feMerge>
        </filter>
        <filter x="-28.0%" y="-29.1%" width="156.1%" height="158.2%" filterUnits="objectBoundingBox" id="filter-4">
            <feOffset dx="0" dy="5" in="SourceAlpha" result="shadowOffsetOuter1"></feOffset>
            <feGaussianBlur stdDeviation="3.5" in="shadowOffsetOuter1" result="shadowBlurOuter1"></feGaussianBlur>
            <feColorMatrix values="0 0 0 0 0.0602500421   0 0 0 0 0.0334876364   0 0 0 0 0.421648551  0 0 0 0.5 0" type="matrix" in="shadowBlurOuter1" result="shadowMatrixOuter1"></feColorMatrix>
            <feMerge>
                <feMergeNode in="shadowMatrixOuter1"></feMergeNode>
                <feMergeNode in="SourceGraphic"></feMergeNode>
            </feMerge>
        </filter>
        <filter x="-22.3%" y="-23.2%" width="144.7%" height="146.5%" filterUnits="objectBoundingBox" id="filter-5">
            <feOffset dx="0" dy="5" in="SourceAlpha" result="shadowOffsetOuter1"></feOffset>
            <feGaussianBlur stdDeviation="3.5" in="shadowOffsetOuter1" result="shadowBlurOuter1"></feGaussianBlur>
            <feColorMatrix values="0 0 0 0 0.0602500421   0 0 0 0 0.0334876364   0 0 0 0 0.421648551  0 0 0 0.5 0" type="matrix" in="shadowBlurOuter1" result="shadowMatrixOuter1"></feColorMatrix>
            <feMerge>
                <feMergeNode in="shadowMatrixOuter1"></feMergeNode>
                <feMergeNode in="SourceGraphic"></feMergeNode>
            </feMerge>
        </filter>
        <filter x="-31.9%" y="-33.3%" width="163.9%" height="166.7%" filterUnits="objectBoundingBox" id="filter-6">
            <feOffset dx="0" dy="5" in="SourceAlpha" result="shadowOffsetOuter1"></feOffset>
            <feGaussianBlur stdDeviation="3.5" in="shadowOffsetOuter1" result="shadowBlurOuter1"></feGaussianBlur>
            <feColorMatrix values="0 0 0 0 0.0602500421   0 0 0 0 0.0334876364   0 0 0 0 0.421648551  0 0 0 0.5 0" type="matrix" in="shadowBlurOuter1" result="shadowMatrixOuter1"></feColorMatrix>
            <feMerge>
                <feMergeNode in="shadowMatrixOuter1"></feMergeNode>
                <feMergeNode in="SourceGraphic"></feMergeNode>
            </feMerge>
        </filter>
        <filter x="-22.3%" y="-23.2%" width="144.7%" height="146.5%" filterUnits="objectBoundingBox" id="filter-7">
            <feOffset dx="0" dy="5" in="SourceAlpha" result="shadowOffsetOuter1"></feOffset>
            <feGaussianBlur stdDeviation="3.5" in="shadowOffsetOuter1" result="shadowBlurOuter1"></feGaussianBlur>
            <feColorMatrix values="0 0 0 0 0.0602500421   0 0 0 0 0.0334876364   0 0 0 0 0.421648551  0 0 0 0.5 0" type="matrix" in="shadowBlurOuter1" result="shadowMatrixOuter1"></feColorMatrix>
            <feMerge>
                <feMergeNode in="shadowMatrixOuter1"></feMergeNode>
                <feMergeNode in="SourceGraphic"></feMergeNode>
            </feMerge>
        </filter>
        <filter x="-22.3%" y="-23.2%" width="144.7%" height="146.5%" filterUnits="objectBoundingBox" id="filter-8">
            <feOffset dx="0" dy="5" in="SourceAlpha" result="shadowOffsetOuter1"></feOffset>
            <feGaussianBlur stdDeviation="3.5" in="shadowOffsetOuter1" result="shadowBlurOuter1"></feGaussianBlur>
            <feColorMatrix values="0 0 0 0 0.0602500421   0 0 0 0 0.0334876364   0 0 0 0 0.421648551  0 0 0 0.5 0" type="matrix" in="shadowBlurOuter1" result="shadowMatrixOuter1"></feColorMatrix>
            <feMerge>
                <feMergeNode in="shadowMatrixOuter1"></feMergeNode>
                <feMergeNode in="SourceGraphic"></feMergeNode>
            </feMerge>
        </filter>
        <filter x="-31.9%" y="-33.3%" width="163.9%" height="166.7%" filterUnits="objectBoundingBox" id="filter-9">
            <feOffset dx="0" dy="5" in="SourceAlpha" result="shadowOffsetOuter1"></feOffset>
            <feGaussianBlur stdDeviation="3.5" in="shadowOffsetOuter1" result="shadowBlurOuter1"></feGaussianBlur>
            <feColorMatrix values="0 0 0 0 0.0602500421   0 0 0 0 0.0334876364   0 0 0 0 0.421648551  0 0 0 0.5 0" type="matrix" in="shadowBlurOuter1" result="shadowMatrixOuter1"></feColorMatrix>
            <feMerge>
                <feMergeNode in="shadowMatrixOuter1"></feMergeNode>
                <feMergeNode in="SourceGraphic"></feMergeNode>
            </feMerge>
        </filter>
        <filter x="-37.1%" y="-38.3%" width="174.2%" height="176.7%" filterUnits="objectBoundingBox" id="filter-10">
            <feOffset dx="0" dy="5" in="SourceAlpha" result="shadowOffsetOuter1"></feOffset>
            <feGaussianBlur stdDeviation="3.5" in="shadowOffsetOuter1" result="shadowBlurOuter1"></feGaussianBlur>
            <feColorMatrix values="0 0 0 0 0.0602500421   0 0 0 0 0.0334876364   0 0 0 0 0.421648551  0 0 0 0.5 0" type="matrix" in="shadowBlurOuter1" result="shadowMatrixOuter1"></feColorMatrix>
            <feMerge>
                <feMergeNode in="shadowMatrixOuter1"></feMergeNode>
                <feMergeNode in="SourceGraphic"></feMergeNode>
            </feMerge>
        </filter>
        <filter x="-28.0%" y="-29.1%" width="156.1%" height="158.2%" filterUnits="objectBoundingBox" id="filter-11">
            <feOffset dx="0" dy="5" in="SourceAlpha" result="shadowOffsetOuter1"></feOffset>
            <feGaussianBlur stdDeviation="3.5" in="shadowOffsetOuter1" result="shadowBlurOuter1"></feGaussianBlur>
            <feColorMatrix values="0 0 0 0 0.0602500421   0 0 0 0 0.0334876364   0 0 0 0 0.421648551  0 0 0 0.5 0" type="matrix" in="shadowBlurOuter1" result="shadowMatrixOuter1"></feColorMatrix>
            <feMerge>
                <feMergeNode in="shadowMatrixOuter1"></feMergeNode>
                <feMergeNode in="SourceGraphic"></feMergeNode>
            </feMerge>
        </filter>
        <filter x="-22.3%" y="-23.2%" width="144.7%" height="146.5%" filterUnits="objectBoundingBox" id="filter-12">
            <feOffset dx="0" dy="5" in="SourceAlpha" result="shadowOffsetOuter1"></feOffset>
            <feGaussianBlur stdDeviation="3.5" in="shadowOffsetOuter1" result="shadowBlurOuter1"></feGaussianBlur>
            <feColorMatrix values="0 0 0 0 0.0602500421   0 0 0 0 0.0334876364   0 0 0 0 0.421648551  0 0 0 0.5 0" type="matrix" in="shadowBlurOuter1" result="shadowMatrixOuter1"></feColorMatrix>
            <feMerge>
                <feMergeNode in="shadowMatrixOuter1"></feMergeNode>
                <feMergeNode in="SourceGraphic"></feMergeNode>
            </feMerge>
        </filter>
        <filter x="-27.7%" y="-28.8%" width="155.4%" height="157.5%" filterUnits="objectBoundingBox" id="filter-13">
            <feOffset dx="0" dy="5" in="SourceAlpha" result="shadowOffsetOuter1"></feOffset>
            <feGaussianBlur stdDeviation="3.5" in="shadowOffsetOuter1" result="shadowBlurOuter1"></feGaussianBlur>
            <feColorMatrix values="0 0 0 0 0.0602500421   0 0 0 0 0.0334876364   0 0 0 0 0.421648551  0 0 0 0.5 0" type="matrix" in="shadowBlurOuter1" result="shadowMatrixOuter1"></feColorMatrix>
            <feMerge>
                <feMergeNode in="shadowMatrixOuter1"></feMergeNode>
                <feMergeNode in="SourceGraphic"></feMergeNode>
            </feMerge>
        </filter>
        <filter x="-22.3%" y="-23.2%" width="144.7%" height="146.5%" filterUnits="objectBoundingBox" id="filter-14">
            <feOffset dx="0" dy="5" in="SourceAlpha" result="shadowOffsetOuter1"></feOffset>
            <feGaussianBlur stdDeviation="3.5" in="shadowOffsetOuter1" result="shadowBlurOuter1"></feGaussianBlur>
            <feColorMatrix values="0 0 0 0 0.0602500421   0 0 0 0 0.0334876364   0 0 0 0 0.421648551  0 0 0 0.5 0" type="matrix" in="shadowBlurOuter1" result="shadowMatrixOuter1"></feColorMatrix>
            <feMerge>
                <feMergeNode in="shadowMatrixOuter1"></feMergeNode>
                <feMergeNode in="SourceGraphic"></feMergeNode>
            </feMerge>
        </filter>
    </defs>
    <g id="Page-1" stroke="none" stroke-width="1" fill="none" fill-rule="evenodd">
        <g id="winner-3" transform="translate(-1.000000, 0.500000)">
            <circle id="Oval" fill="url(#radialGradient-1)" cx="608.5" cy="353.5" r="353.5"></circle>
            <g id="021-cake" filter="url(#filter-2)" transform="translate(360.000000, 123.500000)" fill-rule="nonzero">
                <path d="M256,0.347 C240.39,0.347 227.736,13.002 227.736,28.611 L227.736,64.799 L284.264,64.799 L284.264,28.611 C284.264,13.002 271.61,0.347 256,0.347 Z" id="Path" fill="#D7D9CC"></path>
                <path d="M383.269,45.955 L128.731,45.955 C71.409,45.955 24.939,92.424 24.939,149.747 L24.939,309.215 L60.91,334.156 L451.088,334.156 L487.059,309.215 L487.059,149.747 C487.059,92.425 440.591,45.955 383.269,45.955 Z" id="Path" fill="#F3F5E6"></path>
                <path d="M55.846,149.747 C55.846,92.425 102.315,45.956 159.638,45.956 L128.733,45.956 C71.411,45.956 24.941,92.424 24.941,149.747 L24.941,309.215 L60.912,334.155 L91.817,334.155 L55.846,309.215 L55.846,149.747 Z" id="Path" fill="#D7D9CC"></path>
                <path d="M420.084,476.115 C411.41,468.397 399.451,462.937 390.687,459.359 C376.754,453.67 362.229,449.412 347.303,447.418 C327.84,444.819 309.032,442.954 296.781,425.769 C287.288,412.453 284.149,395.386 282.806,379.414 C280.909,356.868 283.809,334.158 287.778,311.987 L224.226,311.987 C228.194,334.159 231.094,356.869 229.198,379.414 C227.855,395.386 224.715,412.453 215.223,425.769 C202.972,442.954 184.164,444.819 164.701,447.418 C149.774,449.411 135.25,453.67 121.316,459.359 C112.552,462.937 100.593,468.397 91.919,476.115 C83.454,483.647 88.788,497.653 100.119,497.653 L411.887,497.653 C423.215,497.653 428.549,483.646 420.084,476.115 Z" id="Path" fill="#FA7578"></path>
                <polygon id="Path" fill="#A8503C" points="101.634 109.465 101.634 218.321 410.366 218.321 410.366 109.465 369.583 98.323 135.401 98.323"></polygon>
                <path d="M383.435,82.535 L128.565,82.535 C113.691,82.535 101.634,94.592 101.634,109.466 L101.634,109.466 C101.634,126.777 115.801,141.275 133.109,140.943 C149.882,140.623 163.38,126.925 163.38,110.076 C163.38,127.127 177.202,140.949 194.253,140.949 C211.304,140.949 225.126,127.127 225.126,110.076 C225.126,127.127 238.948,140.949 255.999,140.949 C273.05,140.949 286.873,127.127 286.873,110.076 C286.873,127.127 300.695,140.949 317.747,140.949 C334.798,140.949 348.62,127.127 348.62,110.076 C348.62,126.926 362.118,140.623 378.891,140.943 C396.199,141.274 410.366,126.777 410.366,109.466 L410.366,109.466 C410.366,94.592 398.309,82.535 383.435,82.535 Z" id="Path" fill="#FA9EB0"></path>
                <polygon id="Path" fill="#A8503C" points="60.912 219.102 60.912 334.155 451.088 334.155 451.088 219.102 399.545 205.02 103.587 205.02"></polygon>
                <path d="M417.054,185.067 L94.946,185.067 C76.149,185.067 60.911,200.305 60.911,219.102 L60.911,219.102 C60.911,240.98 78.816,259.302 100.689,258.883 C121.887,258.477 138.946,241.167 138.946,219.872 C138.946,241.421 156.415,258.890047 177.964,258.890047 C199.513,258.890047 216.982,241.421 216.982,219.872 C216.982,241.421 234.451,258.890047 256,258.890047 C277.549,258.890047 295.018,241.421 295.018,219.872 C295.018,241.421 312.487,258.890047 334.036,258.890047 C355.585,258.890047 373.054,241.421 373.054,219.872 C373.054,241.167 390.113,258.477 411.311,258.883 C433.185,259.301 451.089,240.979 451.089,219.102 L451.089,219.102 C451.089,200.305 435.851,185.067 417.054,185.067 Z" id="Path" fill="#FA9EB0"></path>
                <path d="M224.224,311.986 C228.192,334.158 231.092,356.868 229.196,379.413 C228.902,382.907 228.514,386.452 228.001,390 L284,390 C283.487,386.452 283.099,382.906 282.805,379.413 C280.908,356.867 283.808,334.157 287.777,311.986 L224.224,311.986 Z" id="Path" fill="#F9545B"></path>
                <path d="M487.059,309.215 L24.941,309.215 C11.166,309.215 0,320.381 0,334.155 L0,334.155 C0,347.93 11.166,359.096 24.941,359.096 L487.06,359.096 C500.835,359.096 512.001,347.93 512.001,334.155 L512.001,334.155 C512.001,320.381 500.834,309.215 487.059,309.215 Z" id="Path" fill="#55C2E3"></path>
                <path d="M30.905,334.155 L30.905,334.155 C30.905,320.38 42.071,309.215 55.846,309.215 L24.941,309.215 C11.166,309.215 0,320.381 0,334.155 L0,334.155 C0,347.93 11.166,359.096 24.941,359.096 L55.846,359.096 C42.072,359.095 30.905,347.929 30.905,334.155 Z" id="Path" fill="#45B6D9"></path>
            </g>
            <g id="Group-2" transform="translate(0.000000, 24.000000)" fill-rule="nonzero">
                <g id="star" filter="url(#filter-3)" transform="translate(267.500000, 451.000000) rotate(27.000000) translate(-267.500000, -451.000000) translate(216.000000, 401.500000)">
                    <path d="M60.0929688,5.528125 L66.9234376,19.3671876 C69.1875,23.9546876 73.5632812,27.134375 78.6265624,27.8695312 L93.8984376,30.0890624 C102.032812,31.2710938 105.280469,41.2671876 99.3945312,47.0046876 L88.34375,57.7765624 C84.6804688,61.3476562 83.0085938,66.4921876 83.8734376,71.534375 L86.4820312,86.7445312 C87.871875,94.8460938 79.36875,101.024219 72.0929688,97.1992188 L58.4335938,90.0179688 C53.9054688,87.6367188 48.4953124,87.6367188 43.9679688,90.0179688 L30.3078124,97.1992188 C23.0320312,101.024219 14.5289062,94.8460938 15.91875,86.7445312 L18.5273438,71.534375 C19.3921876,66.4921876 17.7203124,61.3476562 14.0570312,57.7765624 L3.00625,47.0046876 C-2.8804688,41.2671876 0.3679688,31.2710938 8.5023438,30.0890624 L23.7742188,27.8695312 C28.8367188,27.134375 33.2132812,23.9546876 35.4773438,19.3671876 L42.3070312,5.528125 C45.9445312,-1.8421876 56.4554688,-1.8421876 60.0929688,5.528125 Z" id="Path" fill="#FFEB99"></path>
                    <path d="M41.3773438,41.90625 C49.4882812,34.3554688 57.5648438,16.41875 61.1742188,7.7179688 L60.0929688,5.528125 C56.4554688,-1.8421876 45.9445312,-1.8421876 42.3070312,5.528125 L35.4773438,19.3671876 C33.2132812,23.9546876 28.8367188,27.134375 23.7742188,27.8695312 L8.5023438,30.0890624 C0.3679688,31.2710938 -2.8804688,41.2671876 3.0054688,47.0046876 L14.0570312,57.7765624 C17.7203124,61.3476562 19.3914062,66.4921876 18.5265624,71.534375 L15.9179688,86.7445312 C14.528125,94.8460938 23.0320312,101.024219 30.3070312,97.1992188 L40.0960938,92.0523438 C46.665625,68.7226562 26.81875,55.4601562 41.3773438,41.90625 Z" id="Path" fill="#FFDE55"></path>
                    <g id="Group" transform="translate(33.000000, 49.600000)" fill="#57565C">
                        <path d="M34.81875,5.7523438 C33.9648438,5.7523438 33.2734376,5.0609376 33.2734376,4.2070312 L33.2734376,1.6421876 C33.2734376,0.7882812 33.9648438,0.096875 34.81875,0.096875 C35.671875,0.096875 36.3640624,0.7882812 36.3640624,1.6421876 L36.3640624,4.2070312 C36.3640624,5.0609376 35.671875,5.7523438 34.81875,5.7523438 Z" id="Path"></path>
                        <path d="M1.5820312,5.7523438 C0.728125,5.7523438 0.0367188,5.0609376 0.0367188,4.2070312 L0.0367188,1.6421876 C0.0367188,0.7882812 0.728125,0.096875 1.5820312,0.096875 C2.4359376,0.096875 3.1273438,0.7882812 3.1273438,1.6421876 L3.1273438,4.2070312 C3.1273438,5.0609376 2.4359376,5.7523438 1.5820312,5.7523438 Z" id="Path"></path>
                        <path d="M18.2,7.3703124 C16.2,7.3703124 14.2,6.7234376 12.53125,5.4289062 C11.8570312,4.90625 11.734375,3.9351562 12.2578124,3.2609376 C12.7804688,2.5859376 13.7515624,2.4640624 14.4257812,2.9867188 C16.6476562,4.7109376 19.7523438,4.7109376 21.975,2.9867188 C22.6484376,2.4640624 23.6195312,2.5859376 24.1429688,3.2609376 C24.665625,3.9351562 24.5429688,4.9054688 23.86875,5.4289062 C22.2,6.7234376 20.2,7.3703124 18.2,7.3703124 L18.2,7.3703124 Z" id="Path"></path>
                    </g>
                </g>
                <g id="star" filter="url(#filter-4)" transform="translate(277.000000, 186.500000) rotate(-7.000000) translate(-277.000000, -186.500000) translate(236.000000, 147.000000)">
                    <path d="M48.074375,4.4225 L53.5387501,15.4937501 C55.35,19.1637501 58.850625,21.7075 62.9012499,22.295625 L75.1187501,24.0712499 C81.6262499,25.016875 84.224375,33.0137501 79.515625,37.6037501 L70.675,46.2212499 C67.744375,49.078125 66.406875,53.1937501 67.0987501,57.2275 L69.185625,69.395625 C70.2975,75.876875 63.495,80.819375 57.674375,77.759375 L46.746875,72.014375 C43.124375,70.109375 38.7962499,70.109375 35.174375,72.014375 L24.2462499,77.759375 C18.425625,80.819375 11.623125,75.876875 12.735,69.395625 L14.821875,57.2275 C15.5137501,53.1937501 14.1762499,49.078125 11.245625,46.2212499 L2.405,37.6037501 C-2.30437504,33.0137501 0.29437504,25.016875 6.80187504,24.0712499 L19.019375,22.295625 C23.069375,21.7075 26.570625,19.1637501 28.381875,15.4937501 L33.845625,4.4225 C36.755625,-1.47375008 45.164375,-1.47375008 48.074375,4.4225 Z" id="Path" fill="#FFEB99"></path>
                    <path d="M33.101875,33.525 C39.590625,27.484375 46.051875,13.135 48.939375,6.17437504 L48.074375,4.4225 C45.164375,-1.47375008 36.755625,-1.47375008 33.845625,4.4225 L28.381875,15.4937501 C26.570625,19.1637501 23.069375,21.7075 19.019375,22.295625 L6.80187504,24.0712499 C0.29437504,25.016875 -2.30437504,33.0137501 2.40437504,37.6037501 L11.245625,46.2212499 C14.1762499,49.078125 15.513125,53.1937501 14.8212499,57.2275 L12.734375,69.395625 C11.6225,75.876875 18.425625,80.819375 24.245625,77.759375 L32.076875,73.641875 C37.3325,54.978125 21.455,44.368125 33.101875,33.525 Z" id="Path" fill="#FFDE55"></path>
                    <g id="Group" transform="translate(26.400000, 39.680000)" fill="#57565C">
                        <path d="M27.855,4.60187504 C27.171875,4.60187504 26.6187501,4.04875008 26.6187501,3.36562496 L26.6187501,1.31375008 C26.6187501,0.63062496 27.171875,0.0775 27.855,0.0775 C28.5375,0.0775 29.0912499,0.63062496 29.0912499,1.31375008 L29.0912499,3.36562496 C29.0912499,4.04875008 28.5375,4.60187504 27.855,4.60187504 Z" id="Path"></path>
                        <path d="M1.26562496,4.60187504 C0.5825,4.60187504 0.02937504,4.04875008 0.02937504,3.36562496 L0.02937504,1.31375008 C0.02937504,0.63062496 0.5825,0.0775 1.26562496,0.0775 C1.94875008,0.0775 2.50187504,0.63062496 2.50187504,1.31375008 L2.50187504,3.36562496 C2.50187504,4.04875008 1.94875008,4.60187504 1.26562496,4.60187504 Z" id="Path"></path>
                        <path d="M14.56,5.89624992 C12.96,5.89624992 11.36,5.37875008 10.025,4.34312496 C9.48562496,3.925 9.3875,3.14812496 9.80624992,2.60875008 C10.224375,2.06875008 11.0012499,1.97124992 11.540625,2.38937504 C13.318125,3.76875008 15.801875,3.76875008 17.58,2.38937504 C18.1187501,1.97124992 18.895625,2.06875008 19.314375,2.60875008 C19.7325,3.14812496 19.634375,3.92437504 19.095,4.34312496 C17.76,5.37875008 16.16,5.89624992 14.56,5.89624992 L14.56,5.89624992 Z" id="Path"></path>
                    </g>
                </g>
                <g id="star" filter="url(#filter-5)" transform="translate(904.000000, 451.500000)">
                    <path d="M60.0929688,5.528125 L66.9234376,19.3671876 C69.1875,23.9546876 73.5632812,27.134375 78.6265624,27.8695312 L93.8984376,30.0890624 C102.032812,31.2710938 105.280469,41.2671876 99.3945312,47.0046876 L88.34375,57.7765624 C84.6804688,61.3476562 83.0085938,66.4921876 83.8734376,71.534375 L86.4820312,86.7445312 C87.871875,94.8460938 79.36875,101.024219 72.0929688,97.1992188 L58.4335938,90.0179688 C53.9054688,87.6367188 48.4953124,87.6367188 43.9679688,90.0179688 L30.3078124,97.1992188 C23.0320312,101.024219 14.5289062,94.8460938 15.91875,86.7445312 L18.5273438,71.534375 C19.3921876,66.4921876 17.7203124,61.3476562 14.0570312,57.7765624 L3.00625,47.0046876 C-2.8804688,41.2671876 0.3679688,31.2710938 8.5023438,30.0890624 L23.7742188,27.8695312 C28.8367188,27.134375 33.2132812,23.9546876 35.4773438,19.3671876 L42.3070312,5.528125 C45.9445312,-1.8421876 56.4554688,-1.8421876 60.0929688,5.528125 Z" id="Path" fill="#FFEB99"></path>
                    <path d="M41.3773438,41.90625 C49.4882812,34.3554688 57.5648438,16.41875 61.1742188,7.7179688 L60.0929688,5.528125 C56.4554688,-1.8421876 45.9445312,-1.8421876 42.3070312,5.528125 L35.4773438,19.3671876 C33.2132812,23.9546876 28.8367188,27.134375 23.7742188,27.8695312 L8.5023438,30.0890624 C0.3679688,31.2710938 -2.8804688,41.2671876 3.0054688,47.0046876 L14.0570312,57.7765624 C17.7203124,61.3476562 19.3914062,66.4921876 18.5265624,71.534375 L15.9179688,86.7445312 C14.528125,94.8460938 23.0320312,101.024219 30.3070312,97.1992188 L40.0960938,92.0523438 C46.665625,68.7226562 26.81875,55.4601562 41.3773438,41.90625 Z" id="Path" fill="#FFDE55"></path>
                    <g id="Group" transform="translate(33.000000, 49.600000)" fill="#57565C">
                        <path d="M34.81875,5.7523438 C33.9648438,5.7523438 33.2734376,5.0609376 33.2734376,4.2070312 L33.2734376,1.6421876 C33.2734376,0.7882812 33.9648438,0.096875 34.81875,0.096875 C35.671875,0.096875 36.3640624,0.7882812 36.3640624,1.6421876 L36.3640624,4.2070312 C36.3640624,5.0609376 35.671875,5.7523438 34.81875,5.7523438 Z" id="Path"></path>
                        <path d="M1.5820312,5.7523438 C0.728125,5.7523438 0.0367188,5.0609376 0.0367188,4.2070312 L0.0367188,1.6421876 C0.0367188,0.7882812 0.728125,0.096875 1.5820312,0.096875 C2.4359376,0.096875 3.1273438,0.7882812 3.1273438,1.6421876 L3.1273438,4.2070312 C3.1273438,5.0609376 2.4359376,5.7523438 1.5820312,5.7523438 Z" id="Path"></path>
                        <path d="M18.2,7.3703124 C16.2,7.3703124 14.2,6.7234376 12.53125,5.4289062 C11.8570312,4.90625 11.734375,3.9351562 12.2578124,3.2609376 C12.7804688,2.5859376 13.7515624,2.4640624 14.4257812,2.9867188 C16.6476562,4.7109376 19.7523438,4.7109376 21.975,2.9867188 C22.6484376,2.4640624 23.6195312,2.5859376 24.1429688,3.2609376 C24.665625,3.9351562 24.5429688,4.9054688 23.86875,5.4289062 C22.2,6.7234376 20.2,7.3703124 18.2,7.3703124 L18.2,7.3703124 Z" id="Path"></path>
                    </g>
                </g>
                <g id="star" filter="url(#filter-6)" transform="translate(1005.000000, 299.000000)">
                    <path d="M42.0650782,3.8696875 L46.8464063,13.5570313 C48.43125,16.7682813 51.4942968,18.9940625 55.0385937,19.5086718 L65.7289063,21.0623437 C71.4229687,21.8897657 73.6963282,28.8870313 69.5761718,32.9032813 L61.840625,40.4435937 C59.2763282,42.9433593 58.1060157,46.5445313 58.7114063,50.0740625 L60.5374218,60.7211718 C61.5103125,66.3922657 55.558125,70.7169532 50.4650782,68.0394532 L40.9035157,63.0125782 C37.7338282,61.3457032 33.9467187,61.3457032 30.7775782,63.0125782 L21.2154687,68.0394532 C16.1224218,70.7169532 10.1702343,66.3922657 11.143125,60.7211718 L12.9691407,50.0740625 C13.5745313,46.5445313 12.4042187,42.9433593 9.83992184,40.4435937 L2.104375,32.9032813 C-2.01632816,28.8870313 0.25757816,21.8897657 5.95164066,21.0623437 L16.6419532,19.5086718 C20.1857032,18.9940625 23.2492968,16.7682813 24.8341407,13.5570313 L29.6149218,3.8696875 C32.1611718,-1.28953132 39.5188282,-1.28953132 42.0650782,3.8696875 Z" id="Path" fill="#FFEB99"></path>
                    <path d="M28.9641407,29.334375 C34.6417968,24.0488282 40.2953907,11.493125 42.8219532,5.40257816 L42.0650782,3.8696875 C39.5188282,-1.28953132 32.1611718,-1.28953132 29.6149218,3.8696875 L24.8341407,13.5570313 C23.2492968,16.7682813 20.1857032,18.9940625 16.6419532,19.5086718 L5.95164066,21.0623437 C0.25757816,21.8897657 -2.01632816,28.8870313 2.10382816,32.9032813 L9.83992184,40.4435937 C12.4042187,42.9433593 13.5739843,46.5445313 12.9685937,50.0740625 L11.1425782,60.7211718 C10.1696875,66.3922657 16.1224218,70.7169532 21.2149218,68.0394532 L28.0672657,64.4366407 C32.6659375,48.1058593 18.773125,38.8221093 28.9641407,29.334375 Z" id="Path" fill="#FFDE55"></path>
                    <g id="Group" transform="translate(23.100000, 34.720000)" fill="#57565C">
                        <path d="M24.373125,4.02664066 C23.7753907,4.02664066 23.2914063,3.54265632 23.2914063,2.94492184 L23.2914063,1.14953132 C23.2914063,0.55179684 23.7753907,0.0678125 24.373125,0.0678125 C24.9703125,0.0678125 25.4548437,0.55179684 25.4548437,1.14953132 L25.4548437,2.94492184 C25.4548437,3.54265632 24.9703125,4.02664066 24.373125,4.02664066 Z" id="Path"></path>
                        <path d="M1.10742184,4.02664066 C0.5096875,4.02664066 0.02570316,3.54265632 0.02570316,2.94492184 L0.02570316,1.14953132 C0.02570316,0.55179684 0.5096875,0.0678125 1.10742184,0.0678125 C1.70515632,0.0678125 2.18914066,0.55179684 2.18914066,1.14953132 L2.18914066,2.94492184 C2.18914066,3.54265632 1.70515632,4.02664066 1.10742184,4.02664066 Z" id="Path"></path>
                        <path d="M12.74,5.15921868 C11.34,5.15921868 9.94,4.70640632 8.771875,3.80023434 C8.29992184,3.434375 8.2140625,2.75460934 8.58046868,2.28265632 C8.94632816,1.81015632 9.62609368,1.72484368 10.0980468,2.09070316 C11.6533593,3.29765632 13.8266407,3.29765632 15.3825,2.09070316 C15.8539063,1.72484368 16.5336718,1.81015632 16.9000782,2.28265632 C17.2659375,2.75460934 17.1800782,3.43382816 16.708125,3.80023434 C15.54,4.70640632 14.14,5.15921868 12.74,5.15921868 L12.74,5.15921868 Z" id="Path"></path>
                    </g>
                </g>
                <g id="star" filter="url(#filter-7)" transform="translate(1107.000000, 99.500000)">
                    <path d="M60.0929688,5.528125 L66.9234376,19.3671876 C69.1875,23.9546876 73.5632812,27.134375 78.6265624,27.8695312 L93.8984376,30.0890624 C102.032812,31.2710938 105.280469,41.2671876 99.3945312,47.0046876 L88.34375,57.7765624 C84.6804688,61.3476562 83.0085938,66.4921876 83.8734376,71.534375 L86.4820312,86.7445312 C87.871875,94.8460938 79.36875,101.024219 72.0929688,97.1992188 L58.4335938,90.0179688 C53.9054688,87.6367188 48.4953124,87.6367188 43.9679688,90.0179688 L30.3078124,97.1992188 C23.0320312,101.024219 14.5289062,94.8460938 15.91875,86.7445312 L18.5273438,71.534375 C19.3921876,66.4921876 17.7203124,61.3476562 14.0570312,57.7765624 L3.00625,47.0046876 C-2.8804688,41.2671876 0.3679688,31.2710938 8.5023438,30.0890624 L23.7742188,27.8695312 C28.8367188,27.134375 33.2132812,23.9546876 35.4773438,19.3671876 L42.3070312,5.528125 C45.9445312,-1.8421876 56.4554688,-1.8421876 60.0929688,5.528125 Z" id="Path" fill="#FFEB99"></path>
                    <path d="M41.3773438,41.90625 C49.4882812,34.3554688 57.5648438,16.41875 61.1742188,7.7179688 L60.0929688,5.528125 C56.4554688,-1.8421876 45.9445312,-1.8421876 42.3070312,5.528125 L35.4773438,19.3671876 C33.2132812,23.9546876 28.8367188,27.134375 23.7742188,27.8695312 L8.5023438,30.0890624 C0.3679688,31.2710938 -2.8804688,41.2671876 3.0054688,47.0046876 L14.0570312,57.7765624 C17.7203124,61.3476562 19.3914062,66.4921876 18.5265624,71.534375 L15.9179688,86.7445312 C14.528125,94.8460938 23.0320312,101.024219 30.3070312,97.1992188 L40.0960938,92.0523438 C46.665625,68.7226562 26.81875,55.4601562 41.3773438,41.90625 Z" id="Path" fill="#FFDE55"></path>
                    <g id="Group" transform="translate(33.000000, 49.600000)" fill="#57565C">
                        <path d="M34.81875,5.7523438 C33.9648438,5.7523438 33.2734376,5.0609376 33.2734376,4.2070312 L33.2734376,1.6421876 C33.2734376,0.7882812 33.9648438,0.096875 34.81875,0.096875 C35.671875,0.096875 36.3640624,0.7882812 36.3640624,1.6421876 L36.3640624,4.2070312 C36.3640624,5.0609376 35.671875,5.7523438 34.81875,5.7523438 Z" id="Path"></path>
                        <path d="M1.5820312,5.7523438 C0.728125,5.7523438 0.0367188,5.0609376 0.0367188,4.2070312 L0.0367188,1.6421876 C0.0367188,0.7882812 0.728125,0.096875 1.5820312,0.096875 C2.4359376,0.096875 3.1273438,0.7882812 3.1273438,1.6421876 L3.1273438,4.2070312 C3.1273438,5.0609376 2.4359376,5.7523438 1.5820312,5.7523438 Z" id="Path"></path>
                        <path d="M18.2,7.3703124 C16.2,7.3703124 14.2,6.7234376 12.53125,5.4289062 C11.8570312,4.90625 11.734375,3.9351562 12.2578124,3.2609376 C12.7804688,2.5859376 13.7515624,2.4640624 14.4257812,2.9867188 C16.6476562,4.7109376 19.7523438,4.7109376 21.975,2.9867188 C22.6484376,2.4640624 23.6195312,2.5859376 24.1429688,3.2609376 C24.665625,3.9351562 24.5429688,4.9054688 23.86875,5.4289062 C22.2,6.7234376 20.2,7.3703124 18.2,7.3703124 L18.2,7.3703124 Z" id="Path"></path>
                    </g>
                </g>
                <g id="star" filter="url(#filter-8)" transform="translate(70.500000, 137.000000) rotate(-26.000000) translate(-70.500000, -137.000000) translate(19.000000, 87.500000)">
                    <path d="M60.0929688,5.528125 L66.9234376,19.3671876 C69.1875,23.9546876 73.5632812,27.134375 78.6265624,27.8695312 L93.8984376,30.0890624 C102.032812,31.2710938 105.280469,41.2671876 99.3945312,47.0046876 L88.34375,57.7765624 C84.6804688,61.3476562 83.0085938,66.4921876 83.8734376,71.534375 L86.4820312,86.7445312 C87.871875,94.8460938 79.36875,101.024219 72.0929688,97.1992188 L58.4335938,90.0179688 C53.9054688,87.6367188 48.4953124,87.6367188 43.9679688,90.0179688 L30.3078124,97.1992188 C23.0320312,101.024219 14.5289062,94.8460938 15.91875,86.7445312 L18.5273438,71.534375 C19.3921876,66.4921876 17.7203124,61.3476562 14.0570312,57.7765624 L3.00625,47.0046876 C-2.8804688,41.2671876 0.3679688,31.2710938 8.5023438,30.0890624 L23.7742188,27.8695312 C28.8367188,27.134375 33.2132812,23.9546876 35.4773438,19.3671876 L42.3070312,5.528125 C45.9445312,-1.8421876 56.4554688,-1.8421876 60.0929688,5.528125 Z" id="Path" fill="#FFEB99"></path>
                    <path d="M41.3773438,41.90625 C49.4882812,34.3554688 57.5648438,16.41875 61.1742188,7.7179688 L60.0929688,5.528125 C56.4554688,-1.8421876 45.9445312,-1.8421876 42.3070312,5.528125 L35.4773438,19.3671876 C33.2132812,23.9546876 28.8367188,27.134375 23.7742188,27.8695312 L8.5023438,30.0890624 C0.3679688,31.2710938 -2.8804688,41.2671876 3.0054688,47.0046876 L14.0570312,57.7765624 C17.7203124,61.3476562 19.3914062,66.4921876 18.5265624,71.534375 L15.9179688,86.7445312 C14.528125,94.8460938 23.0320312,101.024219 30.3070312,97.1992188 L40.0960938,92.0523438 C46.665625,68.7226562 26.81875,55.4601562 41.3773438,41.90625 Z" id="Path" fill="#FFDE55"></path>
                    <g id="Group" transform="translate(33.000000, 49.600000)" fill="#57565C">
                        <path d="M34.81875,5.7523438 C33.9648438,5.7523438 33.2734376,5.0609376 33.2734376,4.2070312 L33.2734376,1.6421876 C33.2734376,0.7882812 33.9648438,0.096875 34.81875,0.096875 C35.671875,0.096875 36.3640624,0.7882812 36.3640624,1.6421876 L36.3640624,4.2070312 C36.3640624,5.0609376 35.671875,5.7523438 34.81875,5.7523438 Z" id="Path"></path>
                        <path d="M1.5820312,5.7523438 C0.728125,5.7523438 0.0367188,5.0609376 0.0367188,4.2070312 L0.0367188,1.6421876 C0.0367188,0.7882812 0.728125,0.096875 1.5820312,0.096875 C2.4359376,0.096875 3.1273438,0.7882812 3.1273438,1.6421876 L3.1273438,4.2070312 C3.1273438,5.0609376 2.4359376,5.7523438 1.5820312,5.7523438 Z" id="Path"></path>
                        <path d="M18.2,7.3703124 C16.2,7.3703124 14.2,6.7234376 12.53125,5.4289062 C11.8570312,4.90625 11.734375,3.9351562 12.2578124,3.2609376 C12.7804688,2.5859376 13.7515624,2.4640624 14.4257812,2.9867188 C16.6476562,4.7109376 19.7523438,4.7109376 21.975,2.9867188 C22.6484376,2.4640624 23.6195312,2.5859376 24.1429688,3.2609376 C24.665625,3.9351562 24.5429688,4.9054688 23.86875,5.4289062 C22.2,6.7234376 20.2,7.3703124 18.2,7.3703124 L18.2,7.3703124 Z" id="Path"></path>
                    </g>
                </g>
                <g id="star" filter="url(#filter-9)" transform="translate(411.000000, 49.500000) rotate(14.000000) translate(-411.000000, -49.500000) translate(375.000000, 15.000000)">
                    <path d="M42.0650782,3.8696875 L46.8464063,13.5570313 C48.43125,16.7682813 51.4942968,18.9940625 55.0385937,19.5086718 L65.7289063,21.0623437 C71.4229687,21.8897657 73.6963282,28.8870313 69.5761718,32.9032813 L61.840625,40.4435937 C59.2763282,42.9433593 58.1060157,46.5445313 58.7114063,50.0740625 L60.5374218,60.7211718 C61.5103125,66.3922657 55.558125,70.7169532 50.4650782,68.0394532 L40.9035157,63.0125782 C37.7338282,61.3457032 33.9467187,61.3457032 30.7775782,63.0125782 L21.2154687,68.0394532 C16.1224218,70.7169532 10.1702343,66.3922657 11.143125,60.7211718 L12.9691407,50.0740625 C13.5745313,46.5445313 12.4042187,42.9433593 9.83992184,40.4435937 L2.104375,32.9032813 C-2.01632816,28.8870313 0.25757816,21.8897657 5.95164066,21.0623437 L16.6419532,19.5086718 C20.1857032,18.9940625 23.2492968,16.7682813 24.8341407,13.5570313 L29.6149218,3.8696875 C32.1611718,-1.28953132 39.5188282,-1.28953132 42.0650782,3.8696875 Z" id="Path" fill="#FFEB99"></path>
                    <path d="M28.9641407,29.334375 C34.6417968,24.0488282 40.2953907,11.493125 42.8219532,5.40257816 L42.0650782,3.8696875 C39.5188282,-1.28953132 32.1611718,-1.28953132 29.6149218,3.8696875 L24.8341407,13.5570313 C23.2492968,16.7682813 20.1857032,18.9940625 16.6419532,19.5086718 L5.95164066,21.0623437 C0.25757816,21.8897657 -2.01632816,28.8870313 2.10382816,32.9032813 L9.83992184,40.4435937 C12.4042187,42.9433593 13.5739843,46.5445313 12.9685937,50.0740625 L11.1425782,60.7211718 C10.1696875,66.3922657 16.1224218,70.7169532 21.2149218,68.0394532 L28.0672657,64.4366407 C32.6659375,48.1058593 18.773125,38.8221093 28.9641407,29.334375 Z" id="Path" fill="#FFDE55"></path>
                    <g id="Group" transform="translate(23.100000, 34.720000)" fill="#57565C">
                        <path d="M24.373125,4.02664066 C23.7753907,4.02664066 23.2914063,3.54265632 23.2914063,2.94492184 L23.2914063,1.14953132 C23.2914063,0.55179684 23.7753907,0.0678125 24.373125,0.0678125 C24.9703125,0.0678125 25.4548437,0.55179684 25.4548437,1.14953132 L25.4548437,2.94492184 C25.4548437,3.54265632 24.9703125,4.02664066 24.373125,4.02664066 Z" id="Path"></path>
                        <path d="M1.10742184,4.02664066 C0.5096875,4.02664066 0.02570316,3.54265632 0.02570316,2.94492184 L0.02570316,1.14953132 C0.02570316,0.55179684 0.5096875,0.0678125 1.10742184,0.0678125 C1.70515632,0.0678125 2.18914066,0.55179684 2.18914066,1.14953132 L2.18914066,2.94492184 C2.18914066,3.54265632 1.70515632,4.02664066 1.10742184,4.02664066 Z" id="Path"></path>
                        <path d="M12.74,5.15921868 C11.34,5.15921868 9.94,4.70640632 8.771875,3.80023434 C8.29992184,3.434375 8.2140625,2.75460934 8.58046868,2.28265632 C8.94632816,1.81015632 9.62609368,1.72484368 10.0980468,2.09070316 C11.6533593,3.29765632 13.8266407,3.29765632 15.3825,2.09070316 C15.8539063,1.72484368 16.5336718,1.81015632 16.9000782,2.28265632 C17.2659375,2.75460934 17.1800782,3.43382816 16.708125,3.80023434 C15.54,4.70640632 14.14,5.15921868 12.74,5.15921868 L12.74,5.15921868 Z" id="Path"></path>
                    </g>
                </g>
                <g id="star" filter="url(#filter-10)" transform="translate(91.000000, 274.000000)">
                    <path d="M36.0557813,3.316875 L40.1540626,11.6203126 C41.5125,14.3728126 44.1379687,16.280625 47.1759374,16.7217187 L56.3390626,18.0534374 C61.2196874,18.7626563 63.1682813,24.7603126 59.6367187,28.2028126 L53.00625,34.6659374 C50.8082813,36.8085937 49.8051563,39.8953126 50.3240626,42.920625 L51.8892187,52.0467187 C52.723125,56.9076563 47.62125,60.6145313 43.2557813,58.3195313 L35.0601563,54.0107813 C32.3432813,52.5820313 29.0971874,52.5820313 26.3807813,54.0107813 L18.1846874,58.3195313 C13.8192187,60.6145313 8.71734372,56.9076563 9.55125,52.0467187 L11.1164063,42.920625 C11.6353126,39.8953126 10.6321874,36.8085937 8.43421872,34.6659374 L1.80375,28.2028126 C-1.72828128,24.7603126 0.22078128,18.7626563 5.10140628,18.0534374 L14.2645313,16.7217187 C17.3020313,16.280625 19.9279687,14.3728126 21.2864063,11.6203126 L25.3842187,3.316875 C27.5667187,-1.10531256 33.8732813,-1.10531256 36.0557813,3.316875 Z" id="Path" fill="#FFEB99"></path>
                    <path d="M24.8264063,25.14375 C29.6929687,20.6132813 34.5389063,9.85125 36.7045313,4.63078128 L36.0557813,3.316875 C33.8732813,-1.10531256 27.5667187,-1.10531256 25.3842187,3.316875 L21.2864063,11.6203126 C19.9279687,14.3728126 17.3020313,16.280625 14.2645313,16.7217187 L5.10140628,18.0534374 C0.22078128,18.7626563 -1.72828128,24.7603126 1.80328128,28.2028126 L8.43421872,34.6659374 C10.6321874,36.8085937 11.6348437,39.8953126 11.1159374,42.920625 L9.55078128,52.0467187 C8.716875,56.9076563 13.8192187,60.6145313 18.1842187,58.3195313 L24.0576563,55.2314063 C27.999375,41.2335937 16.09125,33.2760937 24.8264063,25.14375 Z" id="Path" fill="#FFDE55"></path>
                    <g id="Group" transform="translate(19.800000, 29.760000)" fill="#57565C">
                        <path d="M20.89125,3.45140628 C20.3789063,3.45140628 19.9640626,3.03656256 19.9640626,2.52421872 L19.9640626,0.98531256 C19.9640626,0.47296872 20.3789063,0.058125 20.89125,0.058125 C21.403125,0.058125 21.8184374,0.47296872 21.8184374,0.98531256 L21.8184374,2.52421872 C21.8184374,3.03656256 21.403125,3.45140628 20.89125,3.45140628 Z" id="Path"></path>
                        <path d="M0.94921872,3.45140628 C0.436875,3.45140628 0.02203128,3.03656256 0.02203128,2.52421872 L0.02203128,0.98531256 C0.02203128,0.47296872 0.436875,0.058125 0.94921872,0.058125 C1.46156256,0.058125 1.87640628,0.47296872 1.87640628,0.98531256 L1.87640628,2.52421872 C1.87640628,3.03656256 1.46156256,3.45140628 0.94921872,3.45140628 Z" id="Path"></path>
                        <path d="M10.92,4.42218744 C9.72,4.42218744 8.52,4.03406256 7.51875,3.25734372 C7.11421872,2.94375 7.040625,2.36109372 7.35468744,1.95656256 C7.66828128,1.55156256 8.25093744,1.47843744 8.65546872,1.79203128 C9.98859372,2.82656256 11.8514063,2.82656256 13.185,1.79203128 C13.5890626,1.47843744 14.1717187,1.55156256 14.4857813,1.95656256 C14.799375,2.36109372 14.7257813,2.94328128 14.32125,3.25734372 C13.32,4.03406256 12.12,4.42218744 10.92,4.42218744 L10.92,4.42218744 Z" id="Path"></path>
                    </g>
                </g>
                <g id="star" filter="url(#filter-11)" transform="translate(1210.000000, 475.500000) rotate(23.000000) translate(-1210.000000, -475.500000) translate(1169.000000, 436.000000)">
                    <path d="M48.074375,4.4225 L53.5387501,15.4937501 C55.35,19.1637501 58.850625,21.7075 62.9012499,22.295625 L75.1187501,24.0712499 C81.6262499,25.016875 84.224375,33.0137501 79.515625,37.6037501 L70.675,46.2212499 C67.744375,49.078125 66.406875,53.1937501 67.0987501,57.2275 L69.185625,69.395625 C70.2975,75.876875 63.495,80.819375 57.674375,77.759375 L46.746875,72.014375 C43.124375,70.109375 38.7962499,70.109375 35.174375,72.014375 L24.2462499,77.759375 C18.425625,80.819375 11.623125,75.876875 12.735,69.395625 L14.821875,57.2275 C15.5137501,53.1937501 14.1762499,49.078125 11.245625,46.2212499 L2.405,37.6037501 C-2.30437504,33.0137501 0.29437504,25.016875 6.80187504,24.0712499 L19.019375,22.295625 C23.069375,21.7075 26.570625,19.1637501 28.381875,15.4937501 L33.845625,4.4225 C36.755625,-1.47375008 45.164375,-1.47375008 48.074375,4.4225 Z" id="Path" fill="#FFEB99"></path>
                    <path d="M33.101875,33.525 C39.590625,27.484375 46.051875,13.135 48.939375,6.17437504 L48.074375,4.4225 C45.164375,-1.47375008 36.755625,-1.47375008 33.845625,4.4225 L28.381875,15.4937501 C26.570625,19.1637501 23.069375,21.7075 19.019375,22.295625 L6.80187504,24.0712499 C0.29437504,25.016875 -2.30437504,33.0137501 2.40437504,37.6037501 L11.245625,46.2212499 C14.1762499,49.078125 15.513125,53.1937501 14.8212499,57.2275 L12.734375,69.395625 C11.6225,75.876875 18.425625,80.819375 24.245625,77.759375 L32.076875,73.641875 C37.3325,54.978125 21.455,44.368125 33.101875,33.525 Z" id="Path" fill="#FFDE55"></path>
                    <g id="Group" transform="translate(26.400000, 39.680000)" fill="#57565C">
                        <path d="M27.855,4.60187504 C27.171875,4.60187504 26.6187501,4.04875008 26.6187501,3.36562496 L26.6187501,1.31375008 C26.6187501,0.63062496 27.171875,0.0775 27.855,0.0775 C28.5375,0.0775 29.0912499,0.63062496 29.0912499,1.31375008 L29.0912499,3.36562496 C29.0912499,4.04875008 28.5375,4.60187504 27.855,4.60187504 Z" id="Path"></path>
                        <path d="M1.26562496,4.60187504 C0.5825,4.60187504 0.02937504,4.04875008 0.02937504,3.36562496 L0.02937504,1.31375008 C0.02937504,0.63062496 0.5825,0.0775 1.26562496,0.0775 C1.94875008,0.0775 2.50187504,0.63062496 2.50187504,1.31375008 L2.50187504,3.36562496 C2.50187504,4.04875008 1.94875008,4.60187504 1.26562496,4.60187504 Z" id="Path"></path>
                        <path d="M14.56,5.89624992 C12.96,5.89624992 11.36,5.37875008 10.025,4.34312496 C9.48562496,3.925 9.3875,3.14812496 9.80624992,2.60875008 C10.224375,2.06875008 11.0012499,1.97124992 11.540625,2.38937504 C13.318125,3.76875008 15.801875,3.76875008 17.58,2.38937504 C18.1187501,1.97124992 18.895625,2.06875008 19.314375,2.60875008 C19.7325,3.14812496 19.634375,3.92437504 19.095,4.34312496 C17.76,5.37875008 16.16,5.89624992 14.56,5.89624992 L14.56,5.89624992 Z" id="Path"></path>
                    </g>
                </g>
                <g id="star" filter="url(#filter-12)" transform="translate(0.000000, 451.500000)">
                    <path d="M60.0929688,5.528125 L66.9234376,19.3671876 C69.1875,23.9546876 73.5632812,27.134375 78.6265624,27.8695312 L93.8984376,30.0890624 C102.032812,31.2710938 105.280469,41.2671876 99.3945312,47.0046876 L88.34375,57.7765624 C84.6804688,61.3476562 83.0085938,66.4921876 83.8734376,71.534375 L86.4820312,86.7445312 C87.871875,94.8460938 79.36875,101.024219 72.0929688,97.1992188 L58.4335938,90.0179688 C53.9054688,87.6367188 48.4953124,87.6367188 43.9679688,90.0179688 L30.3078124,97.1992188 C23.0320312,101.024219 14.5289062,94.8460938 15.91875,86.7445312 L18.5273438,71.534375 C19.3921876,66.4921876 17.7203124,61.3476562 14.0570312,57.7765624 L3.00625,47.0046876 C-2.8804688,41.2671876 0.3679688,31.2710938 8.5023438,30.0890624 L23.7742188,27.8695312 C28.8367188,27.134375 33.2132812,23.9546876 35.4773438,19.3671876 L42.3070312,5.528125 C45.9445312,-1.8421876 56.4554688,-1.8421876 60.0929688,5.528125 Z" id="Path" fill="#FFEB99"></path>
                    <path d="M41.3773438,41.90625 C49.4882812,34.3554688 57.5648438,16.41875 61.1742188,7.7179688 L60.0929688,5.528125 C56.4554688,-1.8421876 45.9445312,-1.8421876 42.3070312,5.528125 L35.4773438,19.3671876 C33.2132812,23.9546876 28.8367188,27.134375 23.7742188,27.8695312 L8.5023438,30.0890624 C0.3679688,31.2710938 -2.8804688,41.2671876 3.0054688,47.0046876 L14.0570312,57.7765624 C17.7203124,61.3476562 19.3914062,66.4921876 18.5265624,71.534375 L15.9179688,86.7445312 C14.528125,94.8460938 23.0320312,101.024219 30.3070312,97.1992188 L40.0960938,92.0523438 C46.665625,68.7226562 26.81875,55.4601562 41.3773438,41.90625 Z" id="Path" fill="#FFDE55"></path>
                    <g id="Group" transform="translate(33.000000, 49.600000)" fill="#57565C">
                        <path d="M34.81875,5.7523438 C33.9648438,5.7523438 33.2734376,5.0609376 33.2734376,4.2070312 L33.2734376,1.6421876 C33.2734376,0.7882812 33.9648438,0.096875 34.81875,0.096875 C35.671875,0.096875 36.3640624,0.7882812 36.3640624,1.6421876 L36.3640624,4.2070312 C36.3640624,5.0609376 35.671875,5.7523438 34.81875,5.7523438 Z" id="Path"></path>
                        <path d="M1.5820312,5.7523438 C0.728125,5.7523438 0.0367188,5.0609376 0.0367188,4.2070312 L0.0367188,1.6421876 C0.0367188,0.7882812 0.728125,0.096875 1.5820312,0.096875 C2.4359376,0.096875 3.1273438,0.7882812 3.1273438,1.6421876 L3.1273438,4.2070312 C3.1273438,5.0609376 2.4359376,5.7523438 1.5820312,5.7523438 Z" id="Path"></path>
                        <path d="M18.2,7.3703124 C16.2,7.3703124 14.2,6.7234376 12.53125,5.4289062 C11.8570312,4.90625 11.734375,3.9351562 12.2578124,3.2609376 C12.7804688,2.5859376 13.7515624,2.4640624 14.4257812,2.9867188 C16.6476562,4.7109376 19.7523438,4.7109376 21.975,2.9867188 C22.6484376,2.4640624 23.6195312,2.5859376 24.1429688,3.2609376 C24.665625,3.9351562 24.5429688,4.9054688 23.86875,5.4289062 C22.2,6.7234376 20.2,7.3703124 18.2,7.3703124 L18.2,7.3703124 Z" id="Path"></path>
                    </g>
                </g>
                <g id="star" filter="url(#filter-13)" transform="translate(747.000000, 0.000000)">
                    <path d="M48.6753047,4.47778125 L54.2079845,15.687422 C56.041875,19.403297 59.5862578,21.9788437 63.6875155,22.5743203 L76.0577345,24.3721405 C82.646578,25.329586 85.2771797,33.426422 80.5095703,38.073797 L71.5584375,46.7990155 C68.5911797,49.6916015 67.236961,53.858672 67.9374845,57.9428437 L70.0504453,70.2630703 C71.1762188,76.825336 64.2886875,81.8296172 58.3953047,78.7313672 L47.331211,72.9145547 C43.6634297,70.9857422 39.281203,70.9857422 35.6140547,72.9145547 L24.549328,78.7313672 C18.6559453,81.8296172 11.768414,76.825336 12.8941875,70.2630703 L15.0071485,57.9428437 C15.707672,53.858672 14.353453,49.6916015 11.3861953,46.7990155 L2.4350625,38.073797 C-2.33317973,33.426422 0.298054728,25.329586 6.88689848,24.3721405 L19.2571172,22.5743203 C23.3577422,21.9788437 26.9027578,19.403297 28.7366485,15.687422 L34.2686953,4.47778125 C37.2150703,-1.49217196 45.7289297,-1.49217196 48.6753047,4.47778125 Z" id="Path" fill="#FFEB99"></path>
                    <path d="M33.5156485,33.9440625 C40.0855078,27.8279297 46.6275235,13.2991875 49.5511172,6.25155473 L48.6753047,4.47778125 C45.7289297,-1.49217196 37.2150703,-1.49217196 34.2686953,4.47778125 L28.7366485,15.687422 C26.9027578,19.403297 23.3577422,21.9788437 19.2571172,22.5743203 L6.88689848,24.3721405 C0.298054728,25.329586 -2.33317973,33.426422 2.43442973,38.073797 L11.3861953,46.7990155 C14.353453,49.6916015 15.707039,53.858672 15.0065155,57.9428437 L12.8935547,70.2630703 C11.7677812,76.825336 18.6559453,81.8296172 24.5486953,78.7313672 L32.477836,74.5623985 C37.7991562,55.6653515 21.7231875,44.9227265 33.5156485,33.9440625 Z" id="Path" fill="#FFDE55"></path>
                    <g id="Group" transform="translate(26.730000, 40.176000)" fill="#57565C">
                        <path d="M28.2031875,4.65939848 C27.5115235,4.65939848 26.9514845,4.09935946 26.9514845,3.40769527 L26.9514845,1.33017196 C26.9514845,0.638507772 27.5115235,0.07846875 28.2031875,0.07846875 C28.8942188,0.07846875 29.4548905,0.638507772 29.4548905,1.33017196 L29.4548905,3.40769527 C29.4548905,4.09935946 28.8942188,4.65939848 28.2031875,4.65939848 Z" id="Path"></path>
                        <path d="M1.28144527,4.65939848 C0.58978125,4.65939848 0.029742228,4.09935946 0.029742228,3.40769527 L0.029742228,1.33017196 C0.029742228,0.638507772 0.58978125,0.07846875 1.28144527,0.07846875 C1.97310946,0.07846875 2.53314848,0.638507772 2.53314848,1.33017196 L2.53314848,3.40769527 C2.53314848,4.09935946 1.97310946,4.65939848 1.28144527,4.65939848 Z" id="Path"></path>
                        <path d="M14.742,5.96995304 C13.122,5.96995304 11.502,5.44598446 10.1503125,4.39741402 C9.60419527,3.9740625 9.50484375,3.18747652 9.92882804,2.64135946 C10.3521797,2.09460946 11.1387655,1.99589054 11.6848828,2.41924223 C13.4846015,3.81585946 15.9993985,3.81585946 17.79975,2.41924223 C18.3452345,1.99589054 19.1318203,2.09460946 19.5558047,2.64135946 C19.9791562,3.18747652 19.8798047,3.97342973 19.3336875,4.39741402 C17.982,5.44598446 16.362,5.96995304 14.742,5.96995304 L14.742,5.96995304 Z" id="Path"></path>
                    </g>
                </g>
                <g id="star" filter="url(#filter-14)" transform="translate(958.500000, 157.000000) rotate(-23.000000) translate(-958.500000, -157.000000) translate(907.000000, 107.500000)">
                    <path d="M60.0929688,5.528125 L66.9234376,19.3671876 C69.1875,23.9546876 73.5632812,27.134375 78.6265624,27.8695312 L93.8984376,30.0890624 C102.032812,31.2710938 105.280469,41.2671876 99.3945312,47.0046876 L88.34375,57.7765624 C84.6804688,61.3476562 83.0085938,66.4921876 83.8734376,71.534375 L86.4820312,86.7445312 C87.871875,94.8460938 79.36875,101.024219 72.0929688,97.1992188 L58.4335938,90.0179688 C53.9054688,87.6367188 48.4953124,87.6367188 43.9679688,90.0179688 L30.3078124,97.1992188 C23.0320312,101.024219 14.5289062,94.8460938 15.91875,86.7445312 L18.5273438,71.534375 C19.3921876,66.4921876 17.7203124,61.3476562 14.0570312,57.7765624 L3.00625,47.0046876 C-2.8804688,41.2671876 0.3679688,31.2710938 8.5023438,30.0890624 L23.7742188,27.8695312 C28.8367188,27.134375 33.2132812,23.9546876 35.4773438,19.3671876 L42.3070312,5.528125 C45.9445312,-1.8421876 56.4554688,-1.8421876 60.0929688,5.528125 Z" id="Path" fill="#FFEB99"></path>
                    <path d="M41.3773438,41.90625 C49.4882812,34.3554688 57.5648438,16.41875 61.1742188,7.7179688 L60.0929688,5.528125 C56.4554688,-1.8421876 45.9445312,-1.8421876 42.3070312,5.528125 L35.4773438,19.3671876 C33.2132812,23.9546876 28.8367188,27.134375 23.7742188,27.8695312 L8.5023438,30.0890624 C0.3679688,31.2710938 -2.8804688,41.2671876 3.0054688,47.0046876 L14.0570312,57.7765624 C17.7203124,61.3476562 19.3914062,66.4921876 18.5265624,71.534375 L15.9179688,86.7445312 C14.528125,94.8460938 23.0320312,101.024219 30.3070312,97.1992188 L40.0960938,92.0523438 C46.665625,68.7226562 26.81875,55.4601562 41.3773438,41.90625 Z" id="Path" fill="#FFDE55"></path>
                    <g id="Group" transform="translate(33.000000, 49.600000)" fill="#57565C">
                        <path d="M34.81875,5.7523438 C33.9648438,5.7523438 33.2734376,5.0609376 33.2734376,4.2070312 L33.2734376,1.6421876 C33.2734376,0.7882812 33.9648438,0.096875 34.81875,0.096875 C35.671875,0.096875 36.3640624,0.7882812 36.3640624,1.6421876 L36.3640624,4.2070312 C36.3640624,5.0609376 35.671875,5.7523438 34.81875,5.7523438 Z" id="Path"></path>
                        <path d="M1.5820312,5.7523438 C0.728125,5.7523438 0.0367188,5.0609376 0.0367188,4.2070312 L0.0367188,1.6421876 C0.0367188,0.7882812 0.728125,0.096875 1.5820312,0.096875 C2.4359376,0.096875 3.1273438,0.7882812 3.1273438,1.6421876 L3.1273438,4.2070312 C3.1273438,5.0609376 2.4359376,5.7523438 1.5820312,5.7523438 Z" id="Path"></path>
                        <path d="M18.2,7.3703124 C16.2,7.3703124 14.2,6.7234376 12.53125,5.4289062 C11.8570312,4.90625 11.734375,3.9351562 12.2578124,3.2609376 C12.7804688,2.5859376 13.7515624,2.4640624 14.4257812,2.9867188 C16.6476562,4.7109376 19.7523438,4.7109376 21.975,2.9867188 C22.6484376,2.4640624 23.6195312,2.5859376 24.1429688,3.2609376 C24.665625,3.9351562 24.5429688,4.9054688 23.86875,5.4289062 C22.2,6.7234376 20.2,7.3703124 18.2,7.3703124 L18.2,7.3703124 Z" id="Path"></path>
                    </g>
                </g>
            </g>
        </g>
    </g>
</svg>