<?xml version="1.0" encoding="UTF-8"?>
<svg width="1264px" height="707px" viewBox="0 0 1264 707" version="1.1" xmlns="http://www.w3.org/2000/svg" xmlns:xlink="http://www.w3.org/1999/xlink">
    <!-- Generator: Sketch 57.1 (83088) - https://sketch.com -->
    <title>winner</title>
    <desc>Created with Sketch.</desc>
    <defs>
        <filter x="-5.8%" y="-5.9%" width="111.5%" height="111.8%" filterUnits="objectBoundingBox" id="filter-1">
            <feOffset dx="4" dy="7" in="SourceAlpha" result="shadowOffsetOuter1"></feOffset>
            <feGaussianBlur stdDeviation="4" in="shadowOffsetOuter1" result="shadowBlurOuter1"></feGaussianBlur>
            <feColorMatrix values="0 0 0 0 0.0212342069   0 0 0 0 0.0300827235   0 0 0 0 0.123612998  0 0 0 0.5 0" type="matrix" in="shadowBlurOuter1" result="shadowMatrixOuter1"></feColorMatrix>
            <feMerge>
                <feMergeNode in="shadowMatrixOuter1"></feMergeNode>
                <feMergeNode in="SourceGraphic"></feMergeNode>
            </feMerge>
        </filter>
    </defs>
    <g id="Page-1" stroke="none" stroke-width="1" fill="none" fill-rule="evenodd">
        <g id="winner">
            <g id="021-cake" filter="url(#filter-1)" transform="translate(360.000000, 123.500000)">
                <path d="M256,0.347 C240.39,0.347 227.736,13.002 227.736,28.611 L227.736,64.799 L284.264,64.799 L284.264,28.611 C284.264,13.002 271.61,0.347 256,0.347 Z" id="Path" fill="#D7D9CC" fill-rule="nonzero"></path>
                <path d="M383.269,45.955 L128.731,45.955 C71.409,45.955 24.939,92.424 24.939,149.747 L24.939,309.215 L60.91,334.156 L451.088,334.156 L487.059,309.215 L487.059,149.747 C487.059,92.425 440.591,45.955 383.269,45.955 Z" id="Path" fill="#F3F5E6" fill-rule="nonzero"></path>
                <path d="M55.846,149.747 C55.846,92.425 102.315,45.956 159.638,45.956 L128.733,45.956 C71.411,45.956 24.941,92.424 24.941,149.747 L24.941,309.215 L60.912,334.155 L91.817,334.155 L55.846,309.215 L55.846,149.747 Z" id="Path" fill="#D7D9CC" fill-rule="nonzero"></path>
                <path d="M420.084,476.115 C411.41,468.397 399.451,462.937 390.687,459.359 C376.754,453.67 362.229,449.412 347.303,447.418 C327.84,444.819 309.032,442.954 296.781,425.769 C287.288,412.453 284.149,395.386 282.806,379.414 C280.909,356.868 283.809,334.158 287.778,311.987 L224.226,311.987 C228.194,334.159 231.094,356.869 229.198,379.414 C227.855,395.386 224.715,412.453 215.223,425.769 C202.972,442.954 184.164,444.819 164.701,447.418 C149.774,449.411 135.25,453.67 121.316,459.359 C112.552,462.937 100.593,468.397 91.919,476.115 C83.454,483.647 88.788,497.653 100.119,497.653 L411.887,497.653 C423.215,497.653 428.549,483.646 420.084,476.115 Z" id="Path" fill="#FA7578" fill-rule="nonzero"></path>
                <polygon id="Path" fill="#A8503C" fill-rule="nonzero" points="103.366 236.749124 103.366 309.321 410.366 309.321 410.366 236.749124 369.811794 229.321 136.943566 229.321"></polygon>
                <path d="M377,225.5 C321.818336,216.005545 278.485002,210.672211 247,209.5 C221.138338,208.53715 180.491887,208.686156 125.060647,209.947018 C110.771564,209.947018 94.6338364,218.393274 94.6338364,233.678988 C94.6338364,251.46916 108.433281,249.364931 125.060647,249.023741 C141.174051,248.694884 153.951849,251.621256 153.951849,234.305873 C153.951849,251.828848 151.619528,256.5 168,256.5 C184.380472,256.5 213.269698,251.828848 213.269698,234.305873 C213.269698,251.828848 226.915841,242.794119 243.296314,242.794119 C259.676786,242.794119 329,252.022974 329,234.5 C329,252.022974 329.618567,273.5 346,273.5 C362.380472,273.5 359,251.022974 359,233.5 C359,250.816411 404.886595,318.171142 421,318.5 C437.627366,318.840162 412.633836,260.58429 412.633836,242.794119 L412.633836,225.804239 C412.633836,210.518525 391.289082,225.5 377,225.5 Z" id="Path" fill="#FA9EB0" fill-rule="nonzero"></path>
                <path d="M400,308.5 C432.5848,308.5 458,317.875661 458,287.5 C458,257.124339 418.5848,208.5 386,208.5 C362.223543,208.5 214.475312,190.5 192,190.5 C186.44343,190.5 214.136101,239.293102 209,248.5 C205.817136,254.205554 255.375827,260.657698 257,263.5 C265,277.5 292.777474,287.054904 284,287.5 C279.143308,287.746278 319.021174,279.062906 319,287.5 C318.988986,291.888877 350.10624,296.44688 346,298.5 C314.095919,314.452041 367.4152,308.5 400,308.5 Z" id="Oval" fill="#F3F5E6"></path>
                <path d="M224.224,311.986 C228.192,334.158 231.092,356.868 229.196,379.413 C228.902,382.907 228.514,386.452 228.001,390 L284,390 C283.487,386.452 283.099,382.906 282.805,379.413 C280.908,356.867 283.808,334.157 287.777,311.986 L224.224,311.986 Z" id="Path" fill="#F9545B" fill-rule="nonzero"></path>
                <path d="M487.059,309.215 L24.941,309.215 C11.166,309.215 0,320.381 0,334.155 L0,334.155 C0,347.93 11.166,359.096 24.941,359.096 L487.06,359.096 C500.835,359.096 512.001,347.93 512.001,334.155 L512.001,334.155 C512.001,320.381 500.834,309.215 487.059,309.215 Z" id="Path" fill="#55C2E3" fill-rule="nonzero"></path>
                <path d="M30.905,334.155 L30.905,334.155 C30.905,320.38 42.071,309.215 55.846,309.215 L24.941,309.215 C11.166,309.215 0,320.381 0,334.155 L0,334.155 C0,347.93 11.166,359.096 24.941,359.096 L55.846,359.096 C42.072,359.095 30.905,347.929 30.905,334.155 Z" id="Path" fill="#45B6D9" fill-rule="nonzero"></path>
            </g>
        </g>
    </g>
</svg>